<svg xmlns="http://www.w3.org/2000/svg" width="28.218" height="33.521" viewBox="0 0 28.218 33.521">
  <path id="info" d="M44.428,28.284H64.79a3.933,3.933,0,0,0,3.928-3.928V3.928A3.933,3.933,0,0,0,64.79,0H44.428A3.933,3.933,0,0,0,40.5,3.928V29.593a3.933,3.933,0,0,0,3.928,3.928H64.79a3.933,3.933,0,0,0,3.928-3.928v0A6.513,6.513,0,0,1,64.79,30.9H44.428a1.309,1.309,0,0,1,0-2.619ZM43.119,3.928a1.311,1.311,0,0,1,1.309-1.309H64.79A1.311,1.311,0,0,1,66.1,3.928V24.355a1.311,1.311,0,0,1-1.309,1.309H44.428a3.911,3.911,0,0,0-1.309.224ZM53.457,7.922a1.637,1.637,0,1,1,1.637,1.637A1.637,1.637,0,0,1,53.457,7.922Zm-1.665,6.8-1.147-2.354,1.072-.523a3.176,3.176,0,0,1,4.532,3.332c-.006.041-.014.082-.025.122L55.186,19.43a.557.557,0,0,0,.8.538l.89-.434,1.148,2.354-.89.434A3.175,3.175,0,0,1,52.6,18.99q.009-.061.025-.122l1.039-4.134a.557.557,0,0,0-.8-.538Z" transform="translate(-40.5)" fill="#437ddd"/>
</svg>
