<svg id="birthday-cake" xmlns="http://www.w3.org/2000/svg" width="28" height="28" viewBox="0 0 28 28">
  <path id="Path_1071" data-name="Path 1071" d="M98.762,283.246c.026-.017.054-.029.082-.047C98.816,283.218,98.787,283.23,98.762,283.246Zm0,0" transform="translate(-93.001 -266.679)" fill="#ffcd00"/>
  <path id="Path_1072" data-name="Path 1072" d="M231.055,281.225c.035-.014.072-.023.108-.034C231.127,281.2,231.09,281.211,231.055,281.225Zm0,0" transform="translate(-217.577 -264.788)" fill="#ffcd00"/>
  <path id="Path_1073" data-name="Path 1073" d="M235.809,280.22c.04-.007.082-.009.124-.013C235.891,280.211,235.85,280.213,235.809,280.22Zm0,0" transform="translate(-222.053 -263.862)" fill="#ffcd00"/>
  <path id="Path_1074" data-name="Path 1074" d="M373.809,280.8c.028.007.054.017.081.025A.672.672,0,0,0,373.809,280.8Zm0,0" transform="translate(-352.003 -264.421)" fill="#ffcd00"/>
  <path id="Path_1075" data-name="Path 1075" d="M354.762,283.246c.026-.017.054-.029.082-.047C354.816,283.218,354.788,283.23,354.762,283.246Zm0,0" transform="translate(-334.068 -266.679)" fill="#ffcd00"/>
  <path id="Path_1076" data-name="Path 1076" d="M103.055,281.225c.035-.014.072-.023.108-.034C103.127,281.2,103.09,281.211,103.055,281.225Zm0,0" transform="translate(-97.043 -264.788)" fill="#ffcd00"/>
  <path id="Path_1077" data-name="Path 1077" d="M369.008,280.063h-.047a.989.989,0,0,1,.132.013C369.064,280.074,369.037,280.065,369.008,280.063Zm0,0" transform="translate(-347.438 -263.726)" fill="#ffcd00"/>
  <path id="Path_1078" data-name="Path 1078" d="M363.809,280.22c.04-.007.082-.009.124-.013C363.891,280.211,363.85,280.213,363.809,280.22Zm0,0" transform="translate(-342.587 -263.862)" fill="#ffcd00"/>
  <path id="Path_1079" data-name="Path 1079" d="M359.055,281.225c.035-.014.072-.023.108-.034C359.127,281.2,359.09,281.211,359.055,281.225Zm0,0" transform="translate(-338.11 -264.788)" fill="#ffcd00"/>
  <path id="Path_1080" data-name="Path 1080" d="M245.809,280.8c.028.007.054.017.081.025A.674.674,0,0,0,245.809,280.8Zm0,0" transform="translate(-231.47 -264.421)" fill="#ffcd00"/>
  <path id="Path_1081" data-name="Path 1081" d="M107.809,280.22c.04-.007.082-.009.124-.013C107.891,280.211,107.85,280.213,107.809,280.22Zm0,0" transform="translate(-101.52 -263.862)" fill="#ffcd00"/>
  <path id="Path_1082" data-name="Path 1082" d="M226.762,283.246c.026-.017.054-.029.082-.047C226.816,283.218,226.788,283.23,226.762,283.246Zm0,0" transform="translate(-213.534 -266.679)" fill="#ffcd00"/>
  <path id="Path_1083" data-name="Path 1083" d="M113.008,280.063h-.047a.989.989,0,0,1,.132.013C113.064,280.074,113.037,280.065,113.008,280.063Zm0,0" transform="translate(-106.372 -263.726)" fill="#ffcd00"/>
  <path id="Path_1084" data-name="Path 1084" d="M117.809,280.8c.028.007.054.017.081.025A.674.674,0,0,0,117.809,280.8Zm0,0" transform="translate(-110.937 -264.421)" fill="#ffcd00"/>
  <path id="Path_1085" data-name="Path 1085" d="M241.008,280.063h-.047a.989.989,0,0,1,.132.013C241.064,280.074,241.037,280.065,241.008,280.063Zm0,0" transform="translate(-226.905 -263.726)" fill="#ffcd00"/>
  <path id="Path_1086" data-name="Path 1086" d="M53.682,285A2.343,2.343,0,0,1,53,283.35v-1.788a1.482,1.482,0,0,0-.98-1.408c-.027-.008-.053-.018-.081-.025a1.479,1.479,0,0,0-.151-.027c-.044-.006-.088-.011-.132-.013a1.37,1.37,0,0,0-.176.006c-.042,0-.084.006-.124.013a1.452,1.452,0,0,0-.17.046c-.036.012-.073.02-.108.034a1.356,1.356,0,0,0-.169.086.709.709,0,0,0-.082.047,1.394,1.394,0,0,0-.628,1.161v.933a2.333,2.333,0,1,1-4.667,0v-.854a1.482,1.482,0,0,0-.98-1.408c-.027-.008-.053-.018-.081-.025a1.479,1.479,0,0,0-.151-.027c-.044-.006-.088-.011-.132-.013a1.37,1.37,0,0,0-.176.006c-.042,0-.084.006-.124.013a1.451,1.451,0,0,0-.17.046c-.036.012-.073.02-.108.034a1.355,1.355,0,0,0-.169.086.709.709,0,0,0-.082.047,1.394,1.394,0,0,0-.628,1.161v2.8a2.333,2.333,0,0,1-4.667,0v-2.721a1.482,1.482,0,0,0-.98-1.408c-.027-.008-.053-.018-.081-.025a1.479,1.479,0,0,0-.151-.027c-.044-.006-.088-.011-.132-.013a1.37,1.37,0,0,0-.176.006c-.042,0-.084.006-.124.013a1.457,1.457,0,0,0-.17.046c-.036.012-.073.02-.108.034a1.355,1.355,0,0,0-.169.086.705.705,0,0,0-.082.047,1.394,1.394,0,0,0-.628,1.161v1.867a2.326,2.326,0,0,1-2.333,2.333,2.381,2.381,0,0,1-.933-.191v5.791H56.267v-5.791a2.381,2.381,0,0,1-.933.191A2.344,2.344,0,0,1,53.682,285Zm0,0" transform="translate(-30.134 -263.75)" fill="#ffcd00"/>
  <path id="Path_1087" data-name="Path 1087" d="M33.2,232H9.867A1.867,1.867,0,0,0,8,233.867v4.2a2.344,2.344,0,0,0,.681,1.652,2.333,2.333,0,0,0,3.985-1.652V236.2a1.393,1.393,0,0,1,.628-1.166c.026-.017.054-.029.082-.047a1.385,1.385,0,0,1,.169-.086c.035-.014.072-.022.108-.034a1.455,1.455,0,0,1,.17-.047c.041-.007.082-.009.124-.013s.079-.008.121-.008c.019,0,.036,0,.055.006a.287.287,0,0,1,.046,0,.677.677,0,0,1,.085.015,1.479,1.479,0,0,1,.151.027c.028.008.054.016.081.025a1.393,1.393,0,0,1,.981,1.327V239a2.333,2.333,0,1,0,4.667,0v-2.8a1.393,1.393,0,0,1,.628-1.166c.026-.017.054-.029.082-.047a1.385,1.385,0,0,1,.169-.086c.035-.014.072-.022.108-.034a1.458,1.458,0,0,1,.17-.047c.041-.007.082-.009.124-.013s.079-.008.121-.008c.019,0,.036,0,.055.006a.287.287,0,0,1,.046,0,.677.677,0,0,1,.085.015,1.479,1.479,0,0,1,.151.027c.028.008.054.016.081.025a1.393,1.393,0,0,1,.981,1.327v.933a2.333,2.333,0,1,0,4.667,0V236.2a1.393,1.393,0,0,1,.628-1.166c.026-.017.054-.029.082-.047a1.387,1.387,0,0,1,.169-.086c.035-.014.072-.022.108-.034a1.458,1.458,0,0,1,.17-.047c.041-.007.082-.009.124-.013s.079-.008.121-.008c.019,0,.036,0,.055.006a.287.287,0,0,1,.046,0,.677.677,0,0,1,.085.015,1.479,1.479,0,0,1,.151.027c.028.008.054.016.081.025A1.393,1.393,0,0,1,30.4,236.2v1.867a2.326,2.326,0,0,0,2.333,2.333,2.381,2.381,0,0,0,.933-.191,2.347,2.347,0,0,0,1.4-2.142v-4.2A1.867,1.867,0,0,0,33.2,232Zm0,0" transform="translate(-7.533 -218.467)" fill="#ff3051"/>
  <path id="Path_1088" data-name="Path 1088" d="M11.985,337.652A2.343,2.343,0,0,0,12.667,336v.933a2.333,2.333,0,1,1-4.667,0V336a2.343,2.343,0,0,0,.681,1.652,2.315,2.315,0,0,0,1.652.681A2.344,2.344,0,0,0,11.985,337.652Zm0,0" transform="translate(-7.533 -316.4)" fill="#e52b49"/>
  <path id="Path_1089" data-name="Path 1089" d="M139.985,353.652a2.344,2.344,0,0,0,.681-1.652v.933a2.333,2.333,0,1,1-4.667,0V352a2.336,2.336,0,0,0,3.985,1.652Zm0,0" transform="translate(-128.066 -331.466)" fill="#e52b49"/>
  <path id="Path_1090" data-name="Path 1090" d="M267.985,321.652a2.344,2.344,0,0,0,.681-1.652v.933a2.333,2.333,0,0,1-4.667,0V320a2.336,2.336,0,0,0,3.985,1.652Zm0,0" transform="translate(-248.6 -301.333)" fill="#e52b49"/>
  <path id="Path_1091" data-name="Path 1091" d="M396.667,336v.933a2.347,2.347,0,0,1-1.4,2.142,2.381,2.381,0,0,1-.933.191A2.326,2.326,0,0,1,392,336.933V336a2.326,2.326,0,0,0,2.333,2.333,2.381,2.381,0,0,0,.933-.191A2.347,2.347,0,0,0,396.667,336Zm0,0" transform="translate(-369.133 -316.4)" fill="#e52b49"/>
  <path id="Path_1092" data-name="Path 1092" d="M27.533,464.933H.467a.467.467,0,1,1,0-.933H27.533a.467.467,0,1,1,0,.933Zm0,0" transform="translate(0 -436.933)" fill="#bcbec0"/>
  <g id="Group_964" data-name="Group 964" transform="translate(5.544 16.333)">
    <path id="Path_1093" data-name="Path 1093" d="M351.039,284.192a1.4,1.4,0,0,1,.217-.176A1.4,1.4,0,0,0,351.039,284.192Zm0,0" transform="translate(-336.106 -283.781)" fill="#ffcd00"/>
    <path id="Path_1094" data-name="Path 1094" d="M120.179,282.623v-.079a1.393,1.393,0,0,0-.98-1.329A1.482,1.482,0,0,1,120.179,282.623Zm0,0" transform="translate(-117.79 -281.144)" fill="#ffcd00"/>
    <path id="Path_1095" data-name="Path 1095" d="M243.2,280.32a1.487,1.487,0,0,1,.151.027A1.487,1.487,0,0,0,243.2,280.32Zm0,0" transform="translate(-234.556 -280.301)" fill="#ffcd00"/>
    <path id="Path_1096" data-name="Path 1096" d="M248.179,282.623v-.079a1.393,1.393,0,0,0-.98-1.329A1.482,1.482,0,0,1,248.179,282.623Zm0,0" transform="translate(-238.323 -281.144)" fill="#ffcd00"/>
    <path id="Path_1097" data-name="Path 1097" d="M376.179,282.623v-.079a1.393,1.393,0,0,0-.98-1.329A1.482,1.482,0,0,1,376.179,282.623Zm0,0" transform="translate(-358.856 -281.144)" fill="#ffcd00"/>
    <path id="Path_1098" data-name="Path 1098" d="M232.9,280.437a1.5,1.5,0,0,1,.17-.047A1.5,1.5,0,0,0,232.9,280.437Zm0,0" transform="translate(-224.86 -280.367)" fill="#ffcd00"/>
    <path id="Path_1099" data-name="Path 1099" d="M110.05,280c-.041,0-.08.009-.121.012a1.375,1.375,0,0,1,.176-.006C110.087,280,110.069,280,110.05,280Zm0,0" transform="translate(-109.061 -280)" fill="#ffcd00"/>
    <path id="Path_1100" data-name="Path 1100" d="M115.2,280.32a1.488,1.488,0,0,1,.151.027A1.488,1.488,0,0,0,115.2,280.32Zm0,0" transform="translate(-114.023 -280.301)" fill="#ffcd00"/>
    <path id="Path_1101" data-name="Path 1101" d="M366.05,280c-.041,0-.08.009-.121.012a1.375,1.375,0,0,1,.176-.006C366.087,280,366.069,280,366.05,280Zm0,0" transform="translate(-350.128 -280)" fill="#ffcd00"/>
    <path id="Path_1102" data-name="Path 1102" d="M100.16,281.864a1.355,1.355,0,0,1,.169-.086A1.355,1.355,0,0,0,100.16,281.864Zm0,0" transform="translate(-99.861 -281.674)" fill="#ffcd00"/>
    <path id="Path_1103" data-name="Path 1103" d="M356.16,281.864a1.356,1.356,0,0,1,.169-.086A1.356,1.356,0,0,0,356.16,281.864Zm0,0" transform="translate(-340.928 -281.674)" fill="#ffcd00"/>
    <path id="Path_1104" data-name="Path 1104" d="M360.9,280.437a1.5,1.5,0,0,1,.17-.047A1.5,1.5,0,0,0,360.9,280.437Zm0,0" transform="translate(-345.393 -280.367)" fill="#ffcd00"/>
    <path id="Path_1105" data-name="Path 1105" d="M95.039,284.192a1.4,1.4,0,0,1,.217-.176A1.4,1.4,0,0,0,95.039,284.192Zm0,0" transform="translate(-95.039 -283.781)" fill="#ffcd00"/>
    <path id="Path_1106" data-name="Path 1106" d="M104.9,280.437a1.5,1.5,0,0,1,.17-.047A1.5,1.5,0,0,0,104.9,280.437Zm0,0" transform="translate(-104.327 -280.367)" fill="#ffcd00"/>
    <path id="Path_1107" data-name="Path 1107" d="M238.05,280c-.041,0-.08.009-.121.012a1.375,1.375,0,0,1,.176-.006C238.087,280,238.069,280,238.05,280Zm0,0" transform="translate(-229.594 -280)" fill="#ffcd00"/>
    <path id="Path_1108" data-name="Path 1108" d="M223.039,284.192a1.4,1.4,0,0,1,.217-.176A1.4,1.4,0,0,0,223.039,284.192Zm0,0" transform="translate(-215.572 -283.781)" fill="#ffcd00"/>
    <path id="Path_1109" data-name="Path 1109" d="M371.2,280.32a1.488,1.488,0,0,1,.151.027A1.488,1.488,0,0,0,371.2,280.32Zm0,0" transform="translate(-355.09 -280.301)" fill="#ffcd00"/>
    <path id="Path_1110" data-name="Path 1110" d="M228.16,281.864a1.357,1.357,0,0,1,.169-.086A1.357,1.357,0,0,0,228.16,281.864Zm0,0" transform="translate(-220.395 -281.674)" fill="#ffcd00"/>
  </g>
  <path id="Path_1111" data-name="Path 1111" d="M216,128h2.8v6.067H216Zm0,0" transform="translate(-203.4 -120.533)" fill="#ff9811"/>
  <path id="Path_1112" data-name="Path 1112" d="M208,3.733a1.867,1.867,0,0,0,3.733,0C211.733,2.7,209.867,0,209.867,0S208,2.7,208,3.733Zm0,0" transform="translate(-195.867 0)" fill="#ff6243"/>
  <path id="Path_1113" data-name="Path 1113" d="M352,144h2.8v5.133H352Zm0,0" transform="translate(-331.467 -135.6)" fill="#ff9811"/>
  <path id="Path_1114" data-name="Path 1114" d="M344,19.733a1.867,1.867,0,1,0,3.733,0c0-1.031-1.867-3.733-1.867-3.733S344,18.7,344,19.733Zm0,0" transform="translate(-323.933 -15.067)" fill="#ff6243"/>
  <path id="Path_1115" data-name="Path 1115" d="M80,144h2.8v5.133H80Zm0,0" transform="translate(-75.333 -135.6)" fill="#ff9811"/>
  <path id="Path_1116" data-name="Path 1116" d="M75.733,19.733A1.87,1.87,0,0,1,74.1,21.586h0a1.9,1.9,0,0,1-.233.014A1.867,1.867,0,0,1,72,19.733C72,18.7,73.867,16,73.867,16s.093.135.233.35C74.6,17.115,75.733,18.931,75.733,19.733Zm0,0" transform="translate(-67.8 -15.067)" fill="#ff6243"/>
  <path id="Path_1117" data-name="Path 1117" d="M74.1,21.586a1.9,1.9,0,0,1-.233.014A1.867,1.867,0,0,1,72,19.734C72,18.7,73.867,16,73.867,16s.093.135.233.35c-.5.765-1.633,2.581-1.633,3.383A1.87,1.87,0,0,0,74.1,21.586Zm0,0" transform="translate(-67.8 -15.067)" fill="#e5583c"/>
  <path id="Path_1118" data-name="Path 1118" d="M210.1,5.586a1.9,1.9,0,0,1-.233.014A1.867,1.867,0,0,1,208,3.733C208,2.7,209.867,0,209.867,0s.093.135.233.35c-.5.765-1.633,2.581-1.633,3.383A1.87,1.87,0,0,0,210.1,5.586Zm0,0" transform="translate(-195.867)" fill="#e5583c"/>
  <path id="Path_1119" data-name="Path 1119" d="M346.1,21.586a1.9,1.9,0,0,1-.233.014A1.867,1.867,0,0,1,344,19.734C344,18.7,345.867,16,345.867,16s.093.135.233.35c-.5.765-1.633,2.581-1.633,3.383a1.87,1.87,0,0,0,1.633,1.853Zm0,0" transform="translate(-323.933 -15.067)" fill="#e5583c"/>
  <path id="Path_1120" data-name="Path 1120" d="M80,144h2.8v.933H80Zm0,0" transform="translate(-75.333 -135.6)" fill="#e5890f"/>
  <path id="Path_1121" data-name="Path 1121" d="M216,128h2.8v.933H216Zm0,0" transform="translate(-203.4 -120.533)" fill="#e5890f"/>
  <path id="Path_1122" data-name="Path 1122" d="M352,144h2.8v.933H352Zm0,0" transform="translate(-331.467 -135.6)" fill="#e5890f"/>
</svg>
