<svg id="Group_241" data-name="Group 241" xmlns="http://www.w3.org/2000/svg" width="40.723" height="60.417" viewBox="0 0 40.723 60.417">
  <path id="Path_220" data-name="Path 220" d="M123.285,48.952a.885.885,0,0,0-.885.885v8.321a.489.489,0,0,1-.489.489h-4.757V41.218a.885.885,0,1,0-1.77,0V58.647H105.8l2.778-3.056a1.587,1.587,0,0,0,.383-1.273c0-.009,0-.018,0-.027l-2.646-15.631.713-1.073a2.007,2.007,0,0,0,1.267.549,1.55,1.55,0,0,0,1.387-.858h0l2.791-5.593,6.357,2.462a6.132,6.132,0,0,1,3.57,5.574v5.986a.885.885,0,1,0,1.77,0V39.721a7.9,7.9,0,0,0-4.671-7.213l-.017-.007L108.9,28.4V25.922a8.292,8.292,0,0,0,3.138-5.455,3.831,3.831,0,0,0,2.25-.918,3.757,3.757,0,0,0,.392-5.3V10.969a10.969,10.969,0,1,0-21.937,0v3.364a3.554,3.554,0,0,0-.913,2.369,3.75,3.75,0,0,0,1.3,2.847,3.829,3.829,0,0,0,2.249.917A8.2,8.2,0,0,0,98.7,26.053V28.4l-10.57,4.1-.017.007a7.9,7.9,0,0,0-4.671,7.213V58.158a2.261,2.261,0,0,0,2.259,2.259h8.432a.885.885,0,0,0,0-1.77h-1.9V41.218a.885.885,0,1,0-1.77,0V58.647H85.706a.489.489,0,0,1-.489-.489V39.721a6.132,6.132,0,0,1,3.569-5.574l6.353-2.463,2.791,5.594a1.55,1.55,0,0,0,1.387.858,2.006,2.006,0,0,0,1.267-.549l.713,1.073L98.651,54.291c0,.009,0,.018,0,.027a1.587,1.587,0,0,0,.383,1.273l2.778,3.056H98.268a.885.885,0,1,0,0,1.77h23.643a2.261,2.261,0,0,0,2.259-2.259V49.837A.885.885,0,0,0,123.285,48.952Zm-12.47-17.91-2.6,5.214-3.129-2.222,3.214-3.967Zm-5.231,5.518-.675,1.016H102.7l-.675-1.016,1.778-1.263Zm-5.109-7.872V27.032a8.98,8.98,0,0,0,3.347.634,8.309,8.309,0,0,0,3.31-.69V28.7l-3.325,4.1ZM113.825,16.7a1.983,1.983,0,0,1-.689,1.5,2.061,2.061,0,0,1-1.022.47v-3.95A2,2,0,0,1,113.825,16.7ZM95.313,18.677A2,2,0,0,1,93.6,16.7a2.1,2.1,0,0,1,1.711-1.93Zm.048-5.709a4.375,4.375,0,0,0-.846.191v-2.19a9.2,9.2,0,1,1,18.4,0V13.1a3.934,3.934,0,0,0-.8-.154c0-.854.007-.689-2.786-3.693a1.575,1.575,0,0,0-2.01-.245A17.063,17.063,0,0,1,97,11.782,1.574,1.574,0,0,0,95.361,12.968Zm1.723,6.406V13.562a18.913,18.913,0,0,0,11.061-2.983c1.281,1.376,1.975,2.1,2.2,2.372v6.424a6.631,6.631,0,0,1-13.26,0ZM99.4,36.257l-2.6-5.214,2.513-.973,3.214,3.968Zm1.015,18.225,2.562-15.135h1.66L107.2,54.482l-3.392,3.732Z" transform="translate(-83.447)" fill="#437ddd"/>
</svg>
