<svg xmlns="http://www.w3.org/2000/svg" width="50" height="45.784" viewBox="0 0 50 45.784">
  <g id="confirm" transform="translate(0 -21.5)">
    <path id="Path_425" data-name="Path 425" d="M44.955,21.5H5.045A5.051,5.051,0,0,0,0,26.545v10.5a5.051,5.051,0,0,0,5.045,5.045h.837v2.941H0v10.1a6.512,6.512,0,0,0,3.62,5.857l1.366.683a1.614,1.614,0,0,1,.9,1.452v4.167H23.529V63.024l2.941-5.882V51.358a6.335,6.335,0,0,0-6.328-6.328H14.706V42.088H44.955A5.051,5.051,0,0,0,50,37.043v-10.5A5.051,5.051,0,0,0,44.955,21.5ZM20.142,47.971a3.391,3.391,0,0,1,3.387,3.387v5.089l-2.941,5.882v2.014H8.824V63.118A4.539,4.539,0,0,0,6.3,59.035l-1.366-.683a3.587,3.587,0,0,1-1.994-3.226V47.971H5.882v6.863H8.824V36.206h2.941V47.971ZM47.059,37.043a2.106,2.106,0,0,1-2.1,2.1H14.706V33.265H5.882v5.882H5.045a2.106,2.106,0,0,1-2.1-2.1v-10.5a2.106,2.106,0,0,1,2.1-2.1h39.91a2.106,2.106,0,0,1,2.1,2.1Z" fill="#437ddd"/>
    <path id="Path_426" data-name="Path 426" d="M60,81.5H81.078v2.941H60Z" transform="translate(-54.118 -54.118)" fill="#437ddd"/>
    <path id="Path_427" data-name="Path 427" d="M180,141.5h9.314v2.941H180Z" transform="translate(-162.353 -108.235)" fill="#437ddd"/>
    <path id="Path_428" data-name="Path 428" d="M312.889,84.556l-2.045-2.385-2.233,1.914,3.838,4.477,8.945-6.709L319.63,79.5Z" transform="translate(-278.355 -52.314)" fill="#437ddd"/>
  </g>
</svg>
