<svg xmlns="http://www.w3.org/2000/svg" width="34.796" height="26.551" viewBox="0 0 34.796 26.551">
  <g id="contact_1_" data-name="contact (1)" transform="translate(0 -0.5)">
    <path id="Path_573" data-name="Path 573" d="M188.647.837A.509.509,0,0,0,188.6.8a1.267,1.267,0,0,0-.816-.3H171.281a.51.51,0,0,0,0,1.019h15.646l-9.27,6.458a.651.651,0,0,1-.741,0l-9.27-6.458H168.9A.51.51,0,1,0,168.9.5h-2.117a1.265,1.265,0,0,0-.817.3.481.481,0,0,0-.042.038,1.268,1.268,0,0,0-.414.936V14.528a1.268,1.268,0,0,0,.42.942.374.374,0,0,0,.032.029,1.266,1.266,0,0,0,.82.3h21a1.267,1.267,0,0,0,.82-.3c.012-.01.023-.02.034-.031a1.267,1.267,0,0,0,.419-.941V1.773a1.268,1.268,0,0,0-.413-.936ZM178.24,8.814l.06-.042,3.726,2.6a.51.51,0,0,0,.582-.837l-3.416-2.38,8.849-6.165V14.315L184.56,11.89a.51.51,0,0,0-.583.836l2.95,2.056H167.646l8.628-6.01.06.042a1.674,1.674,0,0,0,1.906,0ZM166.532,1.986l8.85,6.165-8.85,6.165Zm0,0" transform="translate(-154.264)" fill="#437ddd"/>
    <path id="Path_574" data-name="Path 574" d="M14.738,60.671a9.366,9.366,0,0,0,3.65.02.51.51,0,0,0-.192-1,8.345,8.345,0,0,1-3.254-.017A17.587,17.587,0,0,1,1.19,45.92a8.374,8.374,0,0,1,2.29-7.61,1.77,1.77,0,0,1,2.5,0l2.865,2.865a1.253,1.253,0,0,1-.131,1.886L6.933,44.407a2.613,2.613,0,0,0-.715,3.4,18.67,18.67,0,0,0,6.834,6.834,2.612,2.612,0,0,0,3.4-.715L17.8,52.147a1.254,1.254,0,0,1,1.886-.131l2.865,2.865a1.77,1.77,0,0,1,0,2.5A8.375,8.375,0,0,1,20.475,58.9a.51.51,0,0,0,.469.905,9.4,9.4,0,0,0,2.328-1.7,2.79,2.79,0,0,0,0-3.941L20.407,51.3a2.273,2.273,0,0,0-3.42.237l-1.345,1.781a1.615,1.615,0,0,1-2.08.447A17.648,17.648,0,0,1,7.1,47.3a1.615,1.615,0,0,1,.447-2.08l1.781-1.345a2.273,2.273,0,0,0,.238-3.42L6.7,37.59a2.79,2.79,0,0,0-3.941,0A9.391,9.391,0,0,0,.191,46.123,18.605,18.605,0,0,0,14.738,60.671Zm0,0" transform="translate(0 -33.809)" fill="#437ddd"/>
  </g>
</svg>
