<svg xmlns="http://www.w3.org/2000/svg" width="55.5" height="55.5" viewBox="0 0 55.5 55.5">
  <g id="shift" transform="translate(-4.25 -4.25)">
    <path id="Path_519" data-name="Path 519" d="M57.913,59.5H6.087A1.545,1.545,0,0,1,4.5,58V10A1.545,1.545,0,0,1,6.087,8.5H57.913A1.545,1.545,0,0,1,59.5,10V58A1.545,1.545,0,0,1,57.913,59.5ZM6.087,9.5a.515.515,0,0,0-.529.5V58a.515.515,0,0,0,.529.5H57.913a.515.515,0,0,0,.529-.5V10a.515.515,0,0,0-.529-.5Z" fill="#437ddd" stroke="#437ddd" stroke-width="0.5"/>
    <path id="Path_521" data-name="Path 521" d="M58,59.5H9A1.5,1.5,0,0,1,7.5,58V17a.5.5,0,0,1,.5-.5H59a.5.5,0,0,1,.5.5V58A1.5,1.5,0,0,1,58,59.5ZM8.5,17.5V58a.5.5,0,0,0,.5.5H58a.5.5,0,0,0,.5-.5V17.5Z" fill="#437ddd" stroke="#437ddd" stroke-width="0.5"/>
    <path id="Path_525" data-name="Path 525" d="M56,17.5H5a.5.5,0,0,1-.5-.5V10A1.5,1.5,0,0,1,6,8.5H55A1.5,1.5,0,0,1,56.5,10v7A.5.5,0,0,1,56,17.5Zm-50.5-1h50V10a.5.5,0,0,0-.5-.5H6a.5.5,0,0,0-.5.5Z" fill="#437ddd" stroke="#437ddd" stroke-width="0.5"/>
    <path id="Path_527" data-name="Path 527" d="M59,17.5H8a.5.5,0,0,1-.5-.5V10A1.5,1.5,0,0,1,9,8.5H58A1.5,1.5,0,0,1,59.5,10v7A.5.5,0,0,1,59,17.5Zm-50.5-1h50V10a.5.5,0,0,0-.5-.5H9a.5.5,0,0,0-.5.5Z" fill="#437ddd" stroke="#437ddd" stroke-width="0.5"/>
    <path id="Path_530" data-name="Path 530" d="M19,13.5H18A1.5,1.5,0,0,1,16.5,12V6A1.5,1.5,0,0,1,18,4.5h1A1.5,1.5,0,0,1,20.5,6v6A1.5,1.5,0,0,1,19,13.5Zm-1-8a.5.5,0,0,0-.5.5v6a.5.5,0,0,0,.5.5h1a.5.5,0,0,0,.5-.5V6a.5.5,0,0,0-.5-.5Z" fill="#437ddd" stroke="#437ddd" stroke-width="0.5"/>
    <path id="Path_531" data-name="Path 531" d="M49,13.5H48A1.5,1.5,0,0,1,46.5,12V6A1.5,1.5,0,0,1,48,4.5h1A1.5,1.5,0,0,1,50.5,6v6A1.5,1.5,0,0,1,49,13.5Zm-1-8a.5.5,0,0,0-.5.5v6a.5.5,0,0,0,.5.5h1a.5.5,0,0,0,.5-.5V6a.5.5,0,0,0-.5-.5Z" fill="#437ddd" stroke="#437ddd" stroke-width="0.5"/>
    <path id="Path_532" data-name="Path 532" d="M21,30.5A4.5,4.5,0,1,1,25.5,26,4.5,4.5,0,0,1,21,30.5Zm0-8A3.5,3.5,0,1,0,24.5,26,3.5,3.5,0,0,0,21,22.5Z" fill="#437ddd" stroke="#437ddd" stroke-width="0.5"/>
    <path id="Path_534" data-name="Path 534" d="M28,38.5H14a.5.5,0,0,1-.5-.5V34A4.505,4.505,0,0,1,18,29.5h6A4.505,4.505,0,0,1,28.5,34v4A.5.5,0,0,1,28,38.5Zm-13.5-1h13V34A3.5,3.5,0,0,0,24,30.5H18A3.5,3.5,0,0,0,14.5,34Z" fill="#437ddd" stroke="#437ddd" stroke-width="0.5"/>
    <path id="Path_538" data-name="Path 538" d="M21,36.5a.5.5,0,0,1-.475-.342l-2-6A.5.5,0,0,1,19,29.5h4a.5.5,0,0,1,.475.658l-2,6A.5.5,0,0,1,21,36.5Zm-1.307-6L21,34.419,22.307,30.5Z" fill="#437ddd" stroke="#437ddd" stroke-width="0.5"/>
    <path id="Path_540" data-name="Path 540" d="M25,26.5H17a.5.5,0,0,1-.5-.5,4.5,4.5,0,0,1,9,0A.5.5,0,0,1,25,26.5Zm-7.465-1h6.93a3.5,3.5,0,0,0-6.93,0Z" fill="#437ddd" stroke="#437ddd" stroke-width="0.5"/>
    <path id="Path_541" data-name="Path 541" d="M21,51.5A4.5,4.5,0,1,1,25.5,47,4.5,4.5,0,0,1,21,51.5Zm0-8A3.5,3.5,0,1,0,24.5,47,3.5,3.5,0,0,0,21,43.5Z" fill="#437ddd" stroke="#437ddd" stroke-width="0.5"/>
    <path id="Path_543" data-name="Path 543" d="M28,59.5H14a.5.5,0,0,1-.5-.5V55A4.5,4.5,0,0,1,18,50.5h6A4.5,4.5,0,0,1,28.5,55v4A.5.5,0,0,1,28,59.5Zm-13.5-1h13V55A3.5,3.5,0,0,0,24,51.5H18A3.5,3.5,0,0,0,14.5,55Z" fill="#437ddd" stroke="#437ddd" stroke-width="0.5"/>
    <path id="Path_547" data-name="Path 547" d="M21,57.5a.5.5,0,0,1-.475-.342l-2-6A.5.5,0,0,1,19,50.5h4a.5.5,0,0,1,.475.658l-2,6A.5.5,0,0,1,21,57.5Zm-1.307-6L21,55.419,22.307,51.5Z" fill="#437ddd" stroke="#437ddd" stroke-width="0.5"/>
    <g id="Group_885" data-name="Group 885">
      <path id="Path_549" data-name="Path 549" d="M25,47.5H17a.5.5,0,0,1-.5-.5,4.5,4.5,0,0,1,9,0A.5.5,0,0,1,25,47.5Zm-7.465-1h6.93a3.5,3.5,0,0,0-6.93,0Z" fill="#437ddd" stroke="#437ddd" stroke-width="0.5"/>
      <path id="Path_550" data-name="Path 550" d="M32,59.5a.5.5,0,0,1-.5-.5V17a.5.5,0,0,1,1,0V59A.5.5,0,0,1,32,59.5Z" fill="#437ddd" stroke="#437ddd" stroke-width="0.5"/>
      <path id="Path_551" data-name="Path 551" d="M46,59.5a.5.5,0,0,1-.5-.5V17a.5.5,0,0,1,1,0V59A.5.5,0,0,1,46,59.5Z" fill="#437ddd" stroke="#437ddd" stroke-width="0.5"/>
      <path id="Path_552" data-name="Path 552" d="M59,38.5H8a.5.5,0,0,1,0-1H59a.5.5,0,0,1,0,1Z" fill="#437ddd" stroke="#437ddd" stroke-width="0.5"/>
      <path id="Path_553" data-name="Path 553" d="M38,30.5a.5.5,0,0,1-.354-.146l-2-2a.5.5,0,0,1,.708-.708L38,29.293l3.646-3.647a.5.5,0,0,1,.708.708l-4,4A.5.5,0,0,1,38,30.5Z" fill="#437ddd" stroke="#437ddd" stroke-width="0.5"/>
      <path id="Path_554" data-name="Path 554" d="M52,30.5a.5.5,0,0,1-.354-.146l-2-2a.5.5,0,0,1,.708-.708L52,29.293l3.646-3.647a.5.5,0,0,1,.708.708l-4,4A.5.5,0,0,1,52,30.5Z" fill="#437ddd" stroke="#437ddd" stroke-width="0.5"/>
    </g>
  </g>
</svg>
