<svg xmlns="http://www.w3.org/2000/svg" width="64.158" height="64.158" viewBox="0 0 64.158 64.158">
  <g id="calendar" transform="translate(-16 -16)">
    <path id="Path_202" data-name="Path 202" d="M74.811,20.277H68.4V19.208a3.208,3.208,0,1,0-6.416,0v1.069H51.287V19.208a3.208,3.208,0,1,0-6.416,0v1.069H34.178V19.208a3.208,3.208,0,1,0-6.416,0v1.069H21.346A5.353,5.353,0,0,0,16,25.624V74.811a5.353,5.353,0,0,0,5.347,5.347H74.811a5.353,5.353,0,0,0,5.347-5.347V25.624A5.353,5.353,0,0,0,74.811,20.277ZM64.118,19.208a1.069,1.069,0,0,1,2.139,0v6.416a1.069,1.069,0,1,1-2.139,0Zm-17.109,0a1.069,1.069,0,0,1,2.139,0v6.416a1.069,1.069,0,1,1-2.139,0Zm-17.109,0a1.069,1.069,0,0,1,2.139,0v6.416a1.069,1.069,0,1,1-2.139,0Zm-8.554,3.208h6.416v3.208a3.208,3.208,0,0,0,6.416,0V22.416H44.871v3.208a3.208,3.208,0,0,0,6.416,0V22.416H61.98v3.208a3.208,3.208,0,1,0,6.416,0V22.416h6.416a3.212,3.212,0,0,1,3.208,3.208v7.485H18.139V25.624A3.212,3.212,0,0,1,21.346,22.416Zm53.465,55.6H21.346a3.212,3.212,0,0,1-3.208-3.208V35.247H78.019V74.811a3.212,3.212,0,0,1-3.208,3.208Z" fill="#437ddd"/>
    <path id="Path_203" data-name="Path 203" d="M405.346,216h-4.277A1.069,1.069,0,0,0,400,217.069v4.277a1.069,1.069,0,0,0,1.069,1.069h4.277a1.069,1.069,0,0,0,1.069-1.069v-4.277A1.069,1.069,0,0,0,405.346,216Zm-1.069,4.277h-2.139v-2.139h2.139Z" transform="translate(-332.674 -173.268)" fill="#437ddd"/>
    <path id="Path_204" data-name="Path 204" d="M245.346,376h-4.277A1.069,1.069,0,0,0,240,377.069v4.277a1.069,1.069,0,0,0,1.069,1.069h4.277a1.069,1.069,0,0,0,1.069-1.069v-4.277A1.069,1.069,0,0,0,245.346,376Zm-1.069,4.277h-2.139v-2.139h2.139Z" transform="translate(-194.06 -311.882)" fill="#437ddd"/>
    <path id="Path_205" data-name="Path 205" d="M165.347,216h-4.277A1.069,1.069,0,0,0,160,217.069v4.277a1.069,1.069,0,0,0,1.069,1.069h4.277a1.069,1.069,0,0,0,1.069-1.069v-4.277A1.069,1.069,0,0,0,165.347,216Zm-1.069,4.277h-2.139v-2.139h2.139Z" transform="translate(-124.753 -173.268)" fill="#437ddd"/>
    <path id="Path_206" data-name="Path 206" d="M85.346,296H81.069A1.069,1.069,0,0,0,80,297.069v4.277a1.069,1.069,0,0,0,1.069,1.069h4.277a1.069,1.069,0,0,0,1.069-1.069v-4.277A1.069,1.069,0,0,0,85.346,296Zm-1.069,4.277H82.139v-2.139h2.139Z" transform="translate(-55.446 -242.575)" fill="#437ddd"/>
    <path id="Path_207" data-name="Path 207" d="M165.347,296h-4.277A1.069,1.069,0,0,0,160,297.069v4.277a1.069,1.069,0,0,0,1.069,1.069h4.277a1.069,1.069,0,0,0,1.069-1.069v-4.277A1.069,1.069,0,0,0,165.347,296Zm-1.069,4.277h-2.139v-2.139h2.139Z" transform="translate(-124.753 -242.575)" fill="#437ddd"/>
    <path id="Path_208" data-name="Path 208" d="M85.346,376H81.069A1.069,1.069,0,0,0,80,377.069v4.277a1.069,1.069,0,0,0,1.069,1.069h4.277a1.069,1.069,0,0,0,1.069-1.069v-4.277A1.069,1.069,0,0,0,85.346,376Zm-1.069,4.277H82.139v-2.139h2.139Z" transform="translate(-55.446 -311.882)" fill="#437ddd"/>
    <path id="Path_209" data-name="Path 209" d="M165.347,376h-4.277A1.069,1.069,0,0,0,160,377.069v4.277a1.069,1.069,0,0,0,1.069,1.069h4.277a1.069,1.069,0,0,0,1.069-1.069v-4.277A1.069,1.069,0,0,0,165.347,376Zm-1.069,4.277h-2.139v-2.139h2.139Z" transform="translate(-124.753 -311.882)" fill="#437ddd"/>
    <path id="Path_210" data-name="Path 210" d="M250.343,206.546,245,205.729l-2.4-5.115a1.069,1.069,0,0,0-1.936,0l-2.4,5.115-5.346.817a1.069,1.069,0,0,0-.6,1.8l3.9,4-.922,5.657a1.069,1.069,0,0,0,1.571,1.107l4.77-2.636,4.77,2.636A1.069,1.069,0,0,0,247.969,218l-.922-5.657,3.9-4a1.069,1.069,0,0,0-.6-1.8Zm-5.2,4.694a1.069,1.069,0,0,0-.29.919l.655,4.017-3.36-1.858a1.069,1.069,0,0,0-1.035,0l-3.36,1.858.655-4.017a1.069,1.069,0,0,0-.29-.919l-2.823-2.894,3.854-.588a1.069,1.069,0,0,0,.806-.6l1.675-3.57,1.675,3.57a1.069,1.069,0,0,0,.806.6l3.854.588Z" transform="translate(-187.132 -159.405)" fill="#437ddd"/>
    <path id="Path_211" data-name="Path 211" d="M405.346,296h-4.277A1.069,1.069,0,0,0,400,297.069v4.277a1.069,1.069,0,0,0,1.069,1.069h4.277a1.069,1.069,0,0,0,1.069-1.069v-4.277A1.069,1.069,0,0,0,405.346,296Zm-1.069,4.277h-2.139v-2.139h2.139Z" transform="translate(-332.674 -242.575)" fill="#437ddd"/>
    <path id="Path_212" data-name="Path 212" d="M405.346,376h-4.277A1.069,1.069,0,0,0,400,377.069v4.277a1.069,1.069,0,0,0,1.069,1.069h4.277a1.069,1.069,0,0,0,1.069-1.069v-4.277A1.069,1.069,0,0,0,405.346,376Zm-1.069,4.277h-2.139v-2.139h2.139Z" transform="translate(-332.674 -311.882)" fill="#437ddd"/>
    <path id="Path_213" data-name="Path 213" d="M325.346,376h-4.277A1.069,1.069,0,0,0,320,377.069v4.277a1.069,1.069,0,0,0,1.069,1.069h4.277a1.069,1.069,0,0,0,1.069-1.069v-4.277A1.069,1.069,0,0,0,325.346,376Zm-1.069,4.277h-2.139v-2.139h2.139Z" transform="translate(-263.367 -311.882)" fill="#437ddd"/>
  </g>
</svg>
