<svg xmlns="http://www.w3.org/2000/svg" width="31.986" height="36.306" viewBox="0 0 31.986 36.306">
  <g id="money" transform="translate(-0.36)">
    <path id="Path_195" data-name="Path 195" d="M188.631,155.872a.567.567,0,0,0-.2-.007,1.354,1.354,0,0,1-1.2-1.343.6.6,0,1,0-1.191,0,2.548,2.548,0,0,0,1.873,2.453v.6a.6.6,0,1,0,1.191,0v-.559a2.543,2.543,0,0,0-.521-5.032,1.352,1.352,0,1,1,1.352-1.352.6.6,0,1,0,1.191,0,2.548,2.548,0,0,0-2.022-2.489V147.6a.6.6,0,1,0-1.191,0v.578a2.543,2.543,0,0,0,.67,5,1.351,1.351,0,0,1,.049,2.7Zm0,0" transform="translate(-171.857 -136.058)" fill="#437ddd"/>
    <path id="Path_196" data-name="Path 196" d="M104.195,115.128a8.636,8.636,0,1,0,8.636-8.636A8.635,8.635,0,0,0,104.195,115.128Zm8.636-7.445a7.445,7.445,0,1,1-7.445,7.445A7.444,7.444,0,0,1,112.831,107.683Zm0,0" transform="translate(-96.106 -98.565)" fill="#437ddd"/>
    <path id="Path_197" data-name="Path 197" d="M28.3,328.729l-4.665,2.2a3.8,3.8,0,0,0-3.239-2l-4.306-.118a4.548,4.548,0,0,1-1.957-.505l-.438-.227a7.729,7.729,0,0,0-7.159.008l.027-.993a.6.6,0,0,0-.579-.612l-4.722-.13a.6.6,0,0,0-.612.579L.36,337.3a.6.6,0,0,0,.579.612l4.722.13h.016a.6.6,0,0,0,.6-.579l.014-.5,1.227-.657a2.1,2.1,0,0,1,1.571-.172l7.326,2.056.039.01a7.844,7.844,0,0,0,1.61.166,7.946,7.946,0,0,0,3.319-.724.549.549,0,0,0,.074-.041l10.622-6.871a.6.6,0,0,0,.2-.793,3.008,3.008,0,0,0-3.973-1.21ZM1.567,336.736l.252-9.172,3.532.1L5.1,336.833Zm19.274-.156a6.752,6.752,0,0,1-4.129.461L9.406,334.99a3.293,3.293,0,0,0-2.455.268l-.627.336.168-6.1a6.546,6.546,0,0,1,6.65-.355l.438.227a5.751,5.751,0,0,0,2.472.639l4.307.118a2.612,2.612,0,0,1,2.482,2.081l-6.415-.177a.6.6,0,1,0-.033,1.191l7.079.195h.017a.6.6,0,0,0,.595-.579,3.779,3.779,0,0,0-.058-.773l4.785-2.261.014-.007a1.819,1.819,0,0,1,2.058.288Zm0,0" transform="translate(0 -302.062)" fill="#437ddd"/>
    <path id="Path_198" data-name="Path 198" d="M213.394,6.253V.6A.6.6,0,0,0,212.2.6V6.253a.6.6,0,0,0,1.191,0Zm0,0" transform="translate(-196.074)" fill="#437ddd"/>
    <path id="Path_199" data-name="Path 199" d="M273.394,43.275V40.6a.6.6,0,0,0-1.191,0v2.68a.6.6,0,0,0,1.191,0Zm0,0" transform="translate(-251.607 -37.022)" fill="#437ddd"/>
    <path id="Path_200" data-name="Path 200" d="M153.394,43.275V40.6a.6.6,0,0,0-1.191,0v2.68a.6.6,0,1,0,1.191,0Zm0,0" transform="translate(-140.54 -37.022)" fill="#437ddd"/>
  </g>
</svg>
