<svg xmlns="http://www.w3.org/2000/svg" width="79.439" height="52.077" viewBox="0 0 79.439 52.077">
  <g id="beach" transform="translate(0 -88.177)">
    <g id="Group_176" data-name="Group 176" transform="translate(0 125.489)">
      <g id="Group_175" data-name="Group 175" transform="translate(0 0)">
        <path id="Path_161" data-name="Path 161" d="M78.276,328.661a16.416,16.416,0,0,0-6.849,1.322,14.254,14.254,0,0,1-6.009,1.165,14.252,14.252,0,0,1-6.009-1.165,16.415,16.415,0,0,0-6.849-1.322,16.4,16.4,0,0,0-6.845,1.322,14.234,14.234,0,0,1-6,1.165,14.243,14.243,0,0,1-6.007-1.165,16.4,16.4,0,0,0-6.847-1.322,16.4,16.4,0,0,0-6.844,1.322,14.233,14.233,0,0,1-6,1.165,14.226,14.226,0,0,1-6-1.165,16.386,16.386,0,0,0-6.843-1.322,1.164,1.164,0,1,0,0,2.327,14.226,14.226,0,0,1,6,1.165,16.387,16.387,0,0,0,6.843,1.322,16.4,16.4,0,0,0,6.845-1.322,14.233,14.233,0,0,1,6-1.165,14.242,14.242,0,0,1,6.006,1.165,16.4,16.4,0,0,0,6.847,1.322,16.4,16.4,0,0,0,6.845-1.322,14.234,14.234,0,0,1,6-1.165,14.251,14.251,0,0,1,6.009,1.165,16.418,16.418,0,0,0,6.849,1.322,16.417,16.417,0,0,0,6.849-1.322,14.254,14.254,0,0,1,6.009-1.165,1.164,1.164,0,1,0,0-2.327Z" transform="translate(0 -328.661)" fill="#437ddd"/>
      </g>
    </g>
    <g id="Group_178" data-name="Group 178" transform="translate(68.405 131.626)">
      <g id="Group_177" data-name="Group 177">
        <path id="Path_162" data-name="Path 162" d="M445.621,368.961a1.164,1.164,0,0,0-1.5-.667l-.212.082a18.892,18.892,0,0,1-2.15.732,1.164,1.164,0,1,0,.585,2.253,21.04,21.04,0,0,0,2.4-.814l.209-.081A1.164,1.164,0,0,0,445.621,368.961Z" transform="translate(-440.883 -368.216)" fill="#437ddd"/>
      </g>
    </g>
    <g id="Group_180" data-name="Group 180" transform="translate(13.681 130.464)">
      <g id="Group_179" data-name="Group 179">
        <path id="Path_163" data-name="Path 163" d="M139.132,363.2a14,14,0,0,1-5.228-1.152,18.389,18.389,0,0,0-13.693,0,16.057,16.057,0,0,1-12.011,0,18.381,18.381,0,0,0-13.691,0A13.981,13.981,0,0,1,89.3,363.2a1.164,1.164,0,0,0,.085,2.326,16.142,16.142,0,0,0,5.966-1.307,16.057,16.057,0,0,1,12.011,0,18.382,18.382,0,0,0,13.691,0,16.063,16.063,0,0,1,12.013,0,16.165,16.165,0,0,0,5.984,1.307,1.164,1.164,0,0,0,.084-2.326Z" transform="translate(-88.177 -360.725)" fill="#437ddd"/>
      </g>
    </g>
    <g id="Group_182" data-name="Group 182" transform="translate(25.694 135.439)">
      <g id="Group_181" data-name="Group 181">
        <path id="Path_164" data-name="Path 164" d="M192.469,392.791a16.4,16.4,0,0,0-6.845,1.322,16.058,16.058,0,0,1-12.011,0,16.4,16.4,0,0,0-6.847-1.322,1.164,1.164,0,1,0,0,2.327,14.244,14.244,0,0,1,6.007,1.165,18.382,18.382,0,0,0,13.691,0,14.234,14.234,0,0,1,6-1.165,1.164,1.164,0,1,0,0-2.327Z" transform="translate(-165.603 -392.791)" fill="#437ddd"/>
      </g>
    </g>
    <g id="Group_184" data-name="Group 184" transform="translate(6.421 131.707)">
      <g id="Group_183" data-name="Group 183">
        <path id="Path_165" data-name="Path 165" d="M45.129,369.55a18.813,18.813,0,0,1-2.159-.735,1.164,1.164,0,1,0-.841,2.17,20.978,20.978,0,0,0,2.416.818,1.164,1.164,0,0,0,.584-2.253Z" transform="translate(-41.386 -368.737)" fill="#437ddd"/>
      </g>
    </g>
    <g id="Group_186" data-name="Group 186" transform="translate(21.144 101.858)">
      <g id="Group_185" data-name="Group 185">
        <path id="Path_166" data-name="Path 166" d="M170.1,184.319a18.577,18.577,0,0,0-33.825,10.611c0,.442.016.888.047,1.326a1.164,1.164,0,0,0,1.16,1.082c.028,0,.055,0,.083,0a1.164,1.164,0,0,0,1.079-1.243c-.027-.384-.041-.774-.041-1.162a16.25,16.25,0,0,1,29.588-9.281,1.164,1.164,0,0,0,1.909-1.331Z" transform="translate(-136.275 -176.354)" fill="#437ddd"/>
      </g>
    </g>
    <g id="Group_188" data-name="Group 188" transform="translate(7.462 119.271)">
      <g id="Group_187" data-name="Group 187" transform="translate(0 0)">
        <path id="Path_167" data-name="Path 167" d="M56.723,288.581H49.261a1.164,1.164,0,0,0,0,2.327h7.462a1.164,1.164,0,0,0,0-2.327Z" transform="translate(-48.097 -288.581)" fill="#437ddd"/>
      </g>
    </g>
    <g id="Group_190" data-name="Group 190" transform="translate(38.556 88.177)">
      <g id="Group_189" data-name="Group 189">
        <path id="Path_168" data-name="Path 168" d="M249.664,88.177a1.164,1.164,0,0,0-1.164,1.164V96.8a1.164,1.164,0,0,0,2.327,0V89.341A1.164,1.164,0,0,0,249.664,88.177Z" transform="translate(-248.5 -88.177)" fill="#437ddd"/>
      </g>
    </g>
    <g id="Group_192" data-name="Group 192" transform="translate(55.266 97.284)">
      <g id="Group_191" data-name="Group 191">
        <path id="Path_169" data-name="Path 169" d="M363.461,147.215a1.164,1.164,0,0,0-1.646,0l-5.277,5.277a1.164,1.164,0,1,0,1.646,1.646l5.277-5.277A1.164,1.164,0,0,0,363.461,147.215Z" transform="translate(-356.197 -146.874)" fill="#437ddd"/>
      </g>
    </g>
    <g id="Group_194" data-name="Group 194" transform="translate(28.561 95.14)">
      <g id="Group_193" data-name="Group 193">
        <path id="Path_170" data-name="Path 170" d="M187.269,136.071l-.952-2.3a1.164,1.164,0,1,0-2.15.891l.952,2.3a1.164,1.164,0,1,0,2.15-.891Z" transform="translate(-184.078 -133.055)" fill="#437ddd"/>
      </g>
    </g>
    <g id="Group_196" data-name="Group 196" transform="translate(60.388 109.275)">
      <g id="Group_195" data-name="Group 195">
        <path id="Path_171" data-name="Path 171" d="M393.748,224.878a1.164,1.164,0,0,0-1.52-.63l-2.3.952a1.164,1.164,0,1,0,.891,2.15l2.3-.952A1.164,1.164,0,0,0,393.748,224.878Z" transform="translate(-389.211 -224.159)" fill="#437ddd"/>
      </g>
    </g>
    <g id="Group_198" data-name="Group 198" transform="translate(47.599 95.14)">
      <g id="Group_197" data-name="Group 197" transform="translate(0 0)">
        <path id="Path_172" data-name="Path 172" d="M309.344,133.143a1.164,1.164,0,0,0-1.52.63l-.952,2.3a1.164,1.164,0,1,0,2.15.891l.952-2.3A1.164,1.164,0,0,0,309.344,133.143Z" transform="translate(-306.783 -133.054)" fill="#437ddd"/>
      </g>
    </g>
    <g id="Group_200" data-name="Group 200" transform="translate(14.425 109.275)">
      <g id="Group_199" data-name="Group 199" transform="translate(0 0)">
        <path id="Path_173" data-name="Path 173" d="M96.881,225.2l-2.3-.952a1.164,1.164,0,1,0-.891,2.15l2.3.952a1.164,1.164,0,1,0,.891-2.15Z" transform="translate(-92.973 -224.158)" fill="#437ddd"/>
      </g>
    </g>
    <g id="Group_202" data-name="Group 202" transform="translate(4.975 95.64)">
      <g id="Group_201" data-name="Group 201">
        <path id="Path_174" data-name="Path 174" d="M45.221,136.275a7.764,7.764,0,0,0-4.746,1.626,6.4,6.4,0,0,0-1.917-.294,6.5,6.5,0,0,0-6.494,6.494,1.164,1.164,0,0,0,1.164,1.164H51.884a1.164,1.164,0,0,0,1.164-1.164A7.835,7.835,0,0,0,45.221,136.275Zm-10.664,6.663a4.174,4.174,0,0,1,4-3,4.129,4.129,0,0,1,1.677.359,1.164,1.164,0,0,0,1.261-.211,5.476,5.476,0,0,1,9.1,2.855Z" transform="translate(-32.064 -136.275)" fill="#437ddd"/>
      </g>
    </g>
    <g id="Group_204" data-name="Group 204" transform="translate(44.775 113.852)">
      <g id="Group_203" data-name="Group 203" transform="translate(0 0)">
        <path id="Path_175" data-name="Path 175" d="M303.07,254.986a6.39,6.39,0,0,0-1.917.294,7.8,7.8,0,0,0-12.573,6.2,1.164,1.164,0,0,0,1.164,1.164H308.4a1.164,1.164,0,0,0,1.164-1.164A6.5,6.5,0,0,0,303.07,254.986Zm-12.038,5.33a5.476,5.476,0,0,1,9.1-2.855,1.164,1.164,0,0,0,1.261.211,4.129,4.129,0,0,1,1.677-.359,4.174,4.174,0,0,1,4,3h-16.04Z" transform="translate(-288.581 -253.654)" fill="#437ddd"/>
      </g>
    </g>
  </g>
</svg>
