<svg id="Group_871" data-name="Group 871" xmlns="http://www.w3.org/2000/svg" width="24" height="22.811" viewBox="0 0 24 22.811">
  <path id="Path_481" data-name="Path 481" d="M23.6,22.81l-2.027-1.847V14.837a.706.706,0,0,0-.706-.706h-4.88a.706.706,0,0,0-.706.706v.393L12.829,13a1.225,1.225,0,0,0-1.658,0L.4,22.81a1.231,1.231,0,0,0,.829,2.14h1.72v9.831a.706.706,0,0,0,.706.706h5.9a.706.706,0,0,0,.706-.706V28.812h3.469v5.969a.706.706,0,0,0,.706.706h5.9a.706.706,0,0,0,.706-.706V24.951h1.72a1.231,1.231,0,0,0,.829-2.14Zm-3.255.729a.706.706,0,0,0-.706.706v9.831h-4.49V28.107a.706.706,0,0,0-.706-.706H9.56a.706.706,0,0,0-.706.706v5.969H4.363V24.245a.706.706,0,0,0-.706-.706H1.7L12,14.153l3.508,3.2a.706.706,0,0,0,1.181-.522V15.543h3.469v5.732a.706.706,0,0,0,.23.522L22.3,23.539Z" transform="translate(0 -12.676)" fill="#4e586e"/>
</svg>
