<svg xmlns="http://www.w3.org/2000/svg" width="66.78" height="60.516" viewBox="0 0 66.78 60.516">
  <g id="attendance_1_" data-name="attendance (1)" transform="translate(0 -23.771)">
    <path id="Path_555" data-name="Path 555" d="M52.962,68.274a.988.988,0,0,0,.988-.988V53.531A14.956,14.956,0,1,0,37.936,33.178l-7.478-4.693a3.8,3.8,0,0,0-4.02,0L16.4,34.783V33.521a3.123,3.123,0,0,0-3.12-3.12h-2.4a3.123,3.123,0,0,0-3.12,3.12v6.653c0,.01,0,.02,0,.03L4.716,42.116a3.761,3.761,0,0,0-1.771,3.2V76.071A3.7,3.7,0,0,0,0,79.687v.907a3.7,3.7,0,0,0,3.693,3.693H53.2a3.7,3.7,0,0,0,3.693-3.693v-.907a3.7,3.7,0,0,0-2.945-3.617V71.238a.988.988,0,1,0-1.976,0v4.756H36.431V64.157a7.554,7.554,0,0,0-7.546-7.546h-.876a7.554,7.554,0,0,0-7.546,7.546V75.994h-4.43a.988.988,0,0,0,0,1.976H53.2a1.719,1.719,0,0,1,1.717,1.717v.907A1.719,1.719,0,0,1,53.2,82.311H3.693a1.719,1.719,0,0,1-1.717-1.717v-.907a1.719,1.719,0,0,1,1.717-1.717h8.388a.988.988,0,1,0,0-1.976H4.921V52.642L28.447,37.879l9.266,5.814a14.888,14.888,0,0,0,1.3,2.761L36.979,50.6l-.025.094a2.481,2.481,0,0,0,2.382,3.121,2.517,2.517,0,0,0,.653-.087l.094-.025,4.192-2.062a14.913,14.913,0,0,0,7.55,2.043l.15,0v13.6A.988.988,0,0,0,52.962,68.274ZM28.01,58.587h.876a5.576,5.576,0,0,1,5.57,5.57V75.994H22.44V64.157A5.576,5.576,0,0,1,28.01,58.587ZM9.737,33.521a1.145,1.145,0,0,1,1.144-1.143h2.4a1.145,1.145,0,0,1,1.143,1.143V35.76a.989.989,0,0,0,.031.244L9.737,38.965Zm19.235,2.355a.988.988,0,0,0-1.05,0l-23,14.434V45.318a1.8,1.8,0,0,1,.846-1.529l21.721-13.63a1.815,1.815,0,0,1,1.919,0l7.9,4.959a14.954,14.954,0,0,0-.277,5.815Zm15.884,13.8-.469-.3-4.982,2.451a.5.5,0,0,1-.557-.557l2.436-4.951-.311-.472a12.919,12.919,0,0,1-1.352-2.7,5.444,5.444,0,0,1-.227-.68,12.98,12.98,0,1,1,5.463,7.207Z" fill="#437ddd"/>
    <path id="Path_556" data-name="Path 556" d="M342.11,82.164h0l-.357-.123a7.622,7.622,0,0,0-.014-3.074l.346-.12a1.623,1.623,0,0,0,.962-2.176,9.617,9.617,0,0,0-5.092-5.056,1.623,1.623,0,0,0-2.166.969l-.121.353a7.623,7.623,0,0,0-3.072.013l-.12-.347a1.621,1.621,0,0,0-2.171-.965,9.617,9.617,0,0,0-5.065,5.094,1.623,1.623,0,0,0,.975,2.169l.347.118a7.622,7.622,0,0,0,.012,3.071l-.347.119a1.623,1.623,0,0,0-.966,2.173,9.67,9.67,0,0,0,5.065,5.113,1.625,1.625,0,0,0,2.186-.971l.133-.4a7.624,7.624,0,0,0,3.065-.011l.119.348a1.621,1.621,0,0,0,2.169.967,9.615,9.615,0,0,0,5.077-5.1,1.623,1.623,0,0,0-.966-2.165Zm-4.538,5.29-.293-.855a.988.988,0,0,0-1.256-.614,5.707,5.707,0,0,1-3.7.014.989.989,0,0,0-1.251.621l-.008.025,0,.013-.291.864a7.7,7.7,0,0,1-3.528-3.57l.856-.294a.988.988,0,0,0,.613-1.256,5.706,5.706,0,0,1-.015-3.707.988.988,0,0,0-.619-1.251l-.853-.289a7.639,7.639,0,0,1,3.516-3.539l.294.854a.988.988,0,0,0,1.256.612,5.707,5.707,0,0,1,3.7-.018.988.988,0,0,0,1.248-.616l.294-.857a7.641,7.641,0,0,1,3.54,3.514l-.854.295a.988.988,0,0,0-.611,1.257,5.705,5.705,0,0,1,.02,3.7.988.988,0,0,0,.614,1.247l.858.3A7.643,7.643,0,0,1,337.572,87.454Z" transform="translate(-282.28 -41.43)" fill="#437ddd"/>
    <path id="Path_557" data-name="Path 557" d="M371.3,113.143a3.58,3.58,0,1,0,2.25,4.537A3.556,3.556,0,0,0,371.3,113.143Zm.378,3.906a1.6,1.6,0,1,1-1.008-2.033A1.594,1.594,0,0,1,371.682,117.049Z" transform="translate(-318.285 -77.434)" fill="#437ddd"/>
    <path id="Path_558" data-name="Path 558" d="M180.589,174.827a4.655,4.655,0,1,0,4.655-4.655A4.661,4.661,0,0,0,180.589,174.827Zm7.335,0a2.679,2.679,0,1,1-2.679-2.679A2.682,2.682,0,0,1,187.924,174.827Z" transform="translate(-156.797 -127.113)" fill="#437ddd"/>
  </g>
</svg>
