<svg xmlns="http://www.w3.org/2000/svg" width="27.219" height="27.219" viewBox="0 0 27.219 27.219">
  <path id="Fill_1" data-name="Fill 1" d="M14.536,27.219H12.684a.889.889,0,0,1-.888-.888V24.313a10.7,10.7,0,0,1-4.473-1.85L5.9,23.889a.892.892,0,0,1-1.257,0l-1.309-1.31a.888.888,0,0,1,0-1.256L4.758,19.9a10.677,10.677,0,0,1-1.843-4.471H.888A.889.889,0,0,1,0,14.536V12.684A.89.89,0,0,1,.888,11.8H2.921A10.744,10.744,0,0,1,4.775,7.342L3.332,5.9a.888.888,0,0,1,0-1.255l1.309-1.31a.889.889,0,0,1,1.257,0L7.345,4.78A10.712,10.712,0,0,1,11.8,2.949V.889A.89.89,0,0,1,12.684,0h1.852a.89.89,0,0,1,.889.889V2.953a10.683,10.683,0,0,1,4.438,1.838l1.46-1.459a.888.888,0,0,1,1.255,0l1.31,1.31a.888.888,0,0,1,0,1.255L22.431,7.355A10.713,10.713,0,0,1,24.276,11.8H26.33a.89.89,0,0,1,.889.889v1.852a.89.89,0,0,1-.889.888H24.281a10.71,10.71,0,0,1-1.832,4.459l1.438,1.439a.888.888,0,0,1,0,1.256l-1.31,1.31a.89.89,0,0,1-1.255,0l-1.435-1.436a10.686,10.686,0,0,1-4.463,1.856v2.022A.89.89,0,0,1,14.536,27.219ZM13.6,8.231a5.4,5.4,0,1,0,5.4,5.4A5.406,5.406,0,0,0,13.6,8.231Z" fill="#437ddd"/>
</svg>
