<svg xmlns="http://www.w3.org/2000/svg" width="27.108" height="32.911" viewBox="0 0 27.108 32.911">
  <g id="Annotation_2020-08-09_144424_copy" data-name="Annotation 2020-08-09 144424 copy" transform="translate(-191.129 -254.135)">
    <path id="Path_148" data-name="Path 148" d="M191.132,270.571q0-6.948,0-13.894c0-1.919.622-2.536,2.558-2.538q11.035-.008,22.07,0c1.83,0,2.477.675,2.474,2.522q0,13.793-.008,27.582c0,2.261-.547,2.8-2.816,2.8q-10.881,0-21.759,0c-1.85,0-2.513-.636-2.519-2.474C191.124,279.9,191.132,275.237,191.132,270.571Zm13.644-3.852c-2.486,0-4.971.006-7.457,0-.7,0-1.3.186-1.3.98,0,.819.636.95,1.322.95q7.3,0,14.6.011c.708,0,1.416-.092,1.405-.975-.011-.864-.705-.969-1.422-.964C209.542,266.728,207.159,266.72,204.776,266.72Zm-.094,7.74q3.624,0,7.251,0c.705,0,1.419-.083,1.411-.966-.006-.866-.694-.975-1.414-.972q-7.252.012-14.5,0c-.719,0-1.408.108-1.411.975-.006.883.708.966,1.414.966C199.847,274.457,202.263,274.459,204.682,274.459Zm-1.975,3.874c-1.791,0-3.583.008-5.374,0-.7-.006-1.3.183-1.319.966-.017.808.614.972,1.3.972q5.424,0,10.85,0c.675,0,1.305-.119,1.308-.955,0-.819-.594-.983-1.289-.98C206.359,278.339,204.532,278.333,202.707,278.333ZM200.3,260.9v.006c1.036,0,2.072-.008,3.1,0,.669.008,1.214-.214,1.241-.939s-.5-.994-1.175-.994q-3.158,0-6.315,0c-.628,0-1.13.244-1.141.925-.014.733.5,1,1.178,1Z" transform="translate(0)" fill="#437ddd"/>
  </g>
</svg>
