<svg xmlns="http://www.w3.org/2000/svg" width="56.008" height="58.649" viewBox="0 0 56.008 58.649">
  <g id="report" transform="translate(0 0)">
    <path id="Path_559" data-name="Path 559" d="M0,53.451a5.367,5.367,0,0,0,5.489,5.2H37.712a5.388,5.388,0,0,0,5.371-4.327,5.287,5.287,0,0,0,4.569-5.132V25.777h2.619a.937.937,0,0,0,.516-.143l4.791-3.112a.942.942,0,0,0,0-1.582L50.787,17.8a.973.973,0,0,0-.516-.179H47.652v-5.16a1.171,1.171,0,0,0-.42-.814L36.327.534A.948.948,0,0,0,36.1.307L36.075.28A.943.943,0,0,0,35.4,0H9.98A5.41,5.41,0,0,0,4.589,4.326,5.3,5.3,0,0,0,0,9.458ZM16.081,23.885V19.51H49.308v4.375ZM51.2,23.108V20.361l2.11,1.373ZM36.537,3.407l7.844,8.062H37.8a1.236,1.236,0,0,1-1.264-1.212ZM9.98,1.892H34.646v8.366a3.129,3.129,0,0,0,3.156,3.1h7.959v4.257H15.182a1.034,1.034,0,0,0-.993,1v.121l-2.815-.056h-.008a.972.972,0,0,0-.946.975l.03,4.117a.946.946,0,0,0,.946.938h2.794v.139a.97.97,0,0,0,.993.925h2L17.168,27.2a2.082,2.082,0,0,0,.565,1.458,1.751,1.751,0,0,0,1.225.552H30.444a.946.946,0,1,0,0-1.892H19.064c0-.118,0-.059,0-.073l.013-1.464H45.76V49.191A3.444,3.444,0,0,1,42.2,52.5H9.979a3.477,3.477,0,0,1-3.594-3.309V5.348c0-.048.031-.1.031-.147a.9.9,0,0,0,0-.122A3.462,3.462,0,0,1,9.979,1.892Zm4.21,20.929H12.335l-.04-2.213,1.895.022ZM1.892,9.458a3.456,3.456,0,0,1,2.6-3.188V49.191a5.368,5.368,0,0,0,5.486,5.2H41.121a3.471,3.471,0,0,1-3.41,2.365H5.489a3.477,3.477,0,0,1-3.6-3.306Zm0,0" transform="translate(0 0)" fill="#437ddd"/>
    <path id="Path_560" data-name="Path 560" d="M89.407,269.892H104.96a.946.946,0,0,0,0-1.892H89.407a.946.946,0,0,0,0,1.892Zm0,0" transform="translate(-78.001 -236.311)" fill="#437ddd"/>
    <path id="Path_561" data-name="Path 561" d="M89.407,308.892h27.067a.946.946,0,0,0,0-1.892H89.407a.946.946,0,0,0,0,1.892Zm0,0" transform="translate(-78.001 -270.699)" fill="#437ddd"/>
    <path id="Path_562" data-name="Path 562" d="M89.407,347.892h27.067a.946.946,0,0,0,0-1.892H89.407a.946.946,0,1,0,0,1.892Zm0,0" transform="translate(-78.001 -305.088)" fill="#437ddd"/>
    <path id="Path_563" data-name="Path 563" d="M89.407,386.892h27.067a.946.946,0,1,0,0-1.892H89.407a.946.946,0,1,0,0,1.892Zm0,0" transform="translate(-78.001 -339.476)" fill="#437ddd"/>
  </g>
</svg>
