<svg xmlns="http://www.w3.org/2000/svg" width="36.047" height="36.216" viewBox="0 0 36.047 36.216">
  <g id="money_document_paper_page_settings_options_preferences" data-name="money, document, paper, page, settings, options, preferences" transform="translate(-1.5 -2.01)">
    <path id="Path_831" data-name="Path 831" d="M50.568,82.81v1.558a2.926,2.926,0,0,1-2.922,2.922H25.62a2.956,2.956,0,0,0,2.933-2.983v-1.5Z" transform="translate(-14.622 -49.71)" fill="none" stroke="#437ddd" stroke-linecap="round" stroke-linejoin="round" stroke-width="1"/>
    <path id="Path_832" data-name="Path 832" d="M35.3,31.237V33.1H18.884v1.493a2.987,2.987,0,1,1-5.969,0V5.428A2.926,2.926,0,0,0,10,2.51H32.377A2.926,2.926,0,0,1,35.3,5.436V17.058" transform="translate(-4.952)" fill="none" stroke="#437ddd" stroke-linecap="round" stroke-linejoin="round" stroke-width="1"/>
    <path id="Path_833" data-name="Path 833" d="M4.979,2.51h0A2.983,2.983,0,0,1,7.962,5.493V6.986H2V5.493A2.983,2.983,0,0,1,4.979,2.51Z" transform="translate(0 0)" fill="none" stroke="#437ddd" stroke-linecap="round" stroke-linejoin="round" stroke-width="1"/>
    <circle id="Ellipse_101" data-name="Ellipse 101" cx="5.596" cy="5.596" r="5.596" transform="translate(13.562 6.239)" fill="none" stroke="#437ddd" stroke-linecap="round" stroke-linejoin="round" stroke-width="1"/>
    <line id="Line_264" data-name="Line 264" x1="9.832" transform="translate(15.051 21.165)" fill="none" stroke="#437ddd" stroke-linecap="round" stroke-linejoin="round" stroke-width="1"/>
    <line id="Line_265" data-name="Line 265" x1="2.987" transform="translate(10.575 21.165)" fill="none" stroke="#437ddd" stroke-linecap="round" stroke-linejoin="round" stroke-width="1"/>
    <line id="Line_266" data-name="Line 266" x1="0.747" transform="translate(22.141 23.401)" fill="none" stroke="#437ddd" stroke-linecap="round" stroke-linejoin="round" stroke-width="1"/>
    <line id="Line_267" data-name="Line 267" x1="10.072" transform="translate(10.575 23.401)" fill="none" stroke="#437ddd" stroke-linecap="round" stroke-linejoin="round" stroke-width="1"/>
    <line id="Line_268" data-name="Line 268" x1="2.236" transform="translate(13.562 25.641)" fill="none" stroke="#437ddd" stroke-linecap="round" stroke-linejoin="round" stroke-width="1"/>
    <path id="Path_834" data-name="Path 834" d="M42.14,63.23h7.3" transform="translate(-24.849 -37.589)" fill="none" stroke="#437ddd" stroke-linecap="round" stroke-linejoin="round" stroke-width="1"/>
    <line id="Line_269" data-name="Line 269" x1="1.493" transform="translate(10.575 25.641)" fill="none" stroke="#437ddd" stroke-linecap="round" stroke-linejoin="round" stroke-width="1"/>
    <line id="Line_270" data-name="Line 270" x1="4.609" transform="translate(19.527 27.877)" fill="none" stroke="#437ddd" stroke-linecap="round" stroke-linejoin="round" stroke-width="1"/>
    <line id="Line_271" data-name="Line 271" x1="7.463" transform="translate(10.575 27.877)" fill="none" stroke="#437ddd" stroke-linecap="round" stroke-linejoin="round" stroke-width="1"/>
    <line id="Line_272" data-name="Line 272" x1="9.699" transform="translate(13.188 30.117)" fill="none" stroke="#437ddd" stroke-linecap="round" stroke-linejoin="round" stroke-width="1"/>
    <line id="Line_273" data-name="Line 273" x1="1.12" transform="translate(10.575 30.117)" fill="none" stroke="#437ddd" stroke-linecap="round" stroke-linejoin="round" stroke-width="1"/>
    <path id="Path_835" data-name="Path 835" d="M43.12,25.6h1.859a1.12,1.12,0,0,0,1.143-1.12h0a1.12,1.12,0,0,0-1.143-1.116H44.24a1.116,1.116,0,0,1-1.12-1.12h0a1.116,1.116,0,0,1,1.12-1.116h1.882" transform="translate(-25.456 -11.527)" fill="none" stroke="#437ddd" stroke-linecap="round" stroke-linejoin="round" stroke-width="1"/>
    <line id="Line_274" data-name="Line 274" y2="1.12" transform="translate(19.158 8.479)" fill="none" stroke="#437ddd" stroke-linecap="round" stroke-linejoin="round" stroke-width="1"/>
    <line id="Line_275" data-name="Line 275" y2="1.12" transform="translate(19.158 14.075)" fill="none" stroke="#437ddd" stroke-linecap="round" stroke-linejoin="round" stroke-width="1"/>
    <path id="Path_836" data-name="Path 836" d="M70.99,49.283V46.3H69.306a5.5,5.5,0,0,0-.522-1.265l1.2-1.2-2.11-2.11-1.2,1.2a5.714,5.714,0,0,0-1.265-.522V40.7H62.426v1.7a5.855,5.855,0,0,0-1.265.522l-1.2-1.2-2.11,2.11,1.2,1.2a5.5,5.5,0,0,0-.522,1.265h-1.7v2.987h1.7a5.5,5.5,0,0,0,.522,1.265l-1.2,1.2,2.11,2.11,1.2-1.2a5.855,5.855,0,0,0,1.265.522v1.7h2.983v-1.7a5.714,5.714,0,0,0,1.265-.522l1.2,1.2,2.11-2.11-1.2-1.2a5.5,5.5,0,0,0,.522-1.265Z" transform="translate(-33.943 -23.642)" fill="none" stroke="#437ddd" stroke-linecap="round" stroke-linejoin="round" stroke-width="1"/>
    <circle id="Ellipse_102" data-name="Ellipse 102" cx="1.493" cy="1.493" r="1.493" transform="translate(28.483 22.654)" fill="none" stroke="#437ddd" stroke-linecap="round" stroke-linejoin="round" stroke-width="1"/>
    <circle id="Ellipse_103" data-name="Ellipse 103" cx="2.983" cy="2.983" r="2.983" transform="translate(26.994 21.165)" fill="none" stroke="#437ddd" stroke-linecap="round" stroke-linejoin="round" stroke-width="1"/>
  </g>
</svg>
