<svg xmlns="http://www.w3.org/2000/svg" width="20" height="22" viewBox="0 0 20 22">
  <path id="Rectangle_3" data-name="Rectangle 3" d="M6,22a6.007,6.007,0,0,1-6-6V6A6.007,6.007,0,0,1,6,0h8a6.007,6.007,0,0,1,6,6V16a6.006,6.006,0,0,1-6,6ZM1.715,6.11v9.78a4.505,4.505,0,0,0,4.5,4.5h7.571a4.505,4.505,0,0,0,4.5-4.5V6.11a4.505,4.505,0,0,0-4.5-4.5H6.214A4.505,4.505,0,0,0,1.715,6.11ZM4.9,15.3a1.251,1.251,0,0,1-.121-1.383A5.931,5.931,0,0,1,10,11a5.931,5.931,0,0,1,5.216,2.917A1.247,1.247,0,0,1,15.1,15.3,6.667,6.667,0,0,1,4.9,15.3ZM7.292,7.042A2.708,2.708,0,1,1,10,9.75,2.708,2.708,0,0,1,7.292,7.042Z" fill="#4e586e"/>
</svg>
