<svg xmlns="http://www.w3.org/2000/svg" width="38.638" height="50.251" viewBox="0 0 38.638 50.251">
<g id="businessman" transform="translate(-34.32)">
    <path id="Path_422" data-name="Path 422" d="M99.818,19.832A9.916,9.916,0,1,0,89.9,9.916,9.927,9.927,0,0,0,99.818,19.832Z" transform="translate(-46.178)" fill="#437ddd"/>
    <path id="Path_423" data-name="Path 423" d="M66.947,141.134l-.017-.005c-1.291-.315-5.245-.868-5.245-.868a.879.879,0,0,0-1.084.539L54.65,157.129a1.074,1.074,0,0,1-2.019,0L46.68,140.8a.879.879,0,0,0-.825-.579c-.085,0-4.151.57-5.5.907-3.7.92-6.031,4.556-6.031,8.346v13.587a3.687,3.687,0,0,0,3.687,3.687H69.271a3.687,3.687,0,0,0,3.687-3.687V149.429A8.725,8.725,0,0,0,66.947,141.134Z" transform="translate(0 -116.496)" fill="#437ddd"/>
    <path id="Path_424" data-name="Path 424" d="M138.134,136.7a1.264,1.264,0,0,0-.936-.389h-2.62a1.265,1.265,0,0,0-.936.389,1.215,1.215,0,0,0-.16,1.432l1.4,2.111-.656,5.531,1.291,3.435a.394.394,0,0,0,.74,0l1.291-3.435-.656-5.531,1.4-2.111A1.216,1.216,0,0,0,138.134,136.7Z" transform="translate(-82.249 -113.25)" fill="#437ddd"/>
</g>
</svg>