<svg xmlns="http://www.w3.org/2000/svg" width="20.7" height="22.77" viewBox="0 0 20.7 22.77">
  <g id="notification" transform="translate(0 -2.07)">
    <path id="Path_482" data-name="Path 482" d="M137.213,420.657a3.886,3.886,0,0,1-3.881-3.881.776.776,0,1,1,1.552,0,2.329,2.329,0,0,0,4.657,0,.776.776,0,1,1,1.552,0A3.886,3.886,0,0,1,137.213,420.657Zm0,0" transform="translate(-126.863 -395.818)" fill="#4e586e"/>
    <path id="Path_483" data-name="Path 483" d="M18.888,82.63H1.811A1.812,1.812,0,0,1,.633,79.442a.715.715,0,0,1,.083-.062A6.956,6.956,0,0,0,3.1,74.133V71.245A7.253,7.253,0,0,1,10.35,64a3.118,3.118,0,0,1,.51.031.776.776,0,1,1-.255,1.531,1.629,1.629,0,0,0-.256-.009,5.7,5.7,0,0,0-5.692,5.692v2.888a8.512,8.512,0,0,1-3,6.49c-.016.013-.029.024-.046.035a.256.256,0,0,0-.055.161.262.262,0,0,0,.259.259H18.888a.262.262,0,0,0,.259-.259.247.247,0,0,0-.056-.161l-.045-.035a8.51,8.51,0,0,1-3-6.49V73a.776.776,0,0,1,1.552,0v1.128a6.958,6.958,0,0,0,2.392,5.251.753.753,0,0,1,.08.06,1.811,1.811,0,0,1-1.178,3.187Zm0,0" transform="translate(0 -60.895)" fill="#4e586e"/>
    <path id="Path_484" data-name="Path 484" d="M260.14,8.28a4.14,4.14,0,1,1,4.14-4.14A4.145,4.145,0,0,1,260.14,8.28Zm0-7.038a2.9,2.9,0,1,0,2.9,2.9,2.9,2.9,0,0,0-2.9-2.9Zm0,0" transform="translate(-243.58 2.07)" fill="#4e586e"/>
  </g>
</svg>
