<svg xmlns="http://www.w3.org/2000/svg" width="62" height="62" viewBox="0 0 62 62">
  <g id="payroll" transform="translate(-1 -1)">
    <path id="Path_183" data-name="Path 183" d="M15,51a1,1,0,0,1-1-1H12a3,3,0,0,0,3,3v2h2V53h3V50a3,3,0,0,0-3-3H15a1,1,0,0,1-1-1V45h3a1,1,0,0,1,1,1h2a3,3,0,0,0-3-3V41H15v2H12v3a3,3,0,0,0,3,3h2a1,1,0,0,1,1,1v1Z" fill="#437ddd"/>
    <path id="Path_184" data-name="Path 184" d="M16,57A9,9,0,0,1,9.038,42.3L7.491,41.03A11,11,0,0,0,22.97,56.509L21.7,54.962A9.013,9.013,0,0,1,16,57Z" fill="#437ddd"/>
    <path id="Path_185" data-name="Path 185" d="M16,37a11.021,11.021,0,0,0-6.97,2.491L10.3,41.038A9,9,0,0,1,22.962,53.7l1.547,1.268A11,11,0,0,0,16,37Z" fill="#437ddd"/>
    <path id="Path_186" data-name="Path 186" d="M58,1H14A5.006,5.006,0,0,0,9,6V34.744A15.007,15.007,0,1,0,29.256,41H58a5.006,5.006,0,0,0,5-5V6A5.006,5.006,0,0,0,58,1ZM16,61A13,13,0,1,1,29,48,13.015,13.015,0,0,1,16,61Zm0-28c-.338,0-.668.029-1,.051V10.9A5.013,5.013,0,0,0,18.9,7H53.1A5.013,5.013,0,0,0,57,10.9V31.1A5.013,5.013,0,0,0,53.1,35H23.451A14.9,14.9,0,0,0,16,33Zm45,3a3,3,0,0,1-3,3H27.972a15.114,15.114,0,0,0-1.808-2H55V36a3,3,0,0,1,3-3h1V9H58a3,3,0,0,1-3-3V5H17V6a3,3,0,0,1-3,3H13V33.3a14.789,14.789,0,0,0-2,.573V6a3,3,0,0,1,3-3H58a3,3,0,0,1,3,3Z" fill="#437ddd"/>
    <path id="Path_187" data-name="Path 187" d="M53,9H19v8H53Zm-2,6H21V11H51Z" fill="#437ddd"/>
    <path id="Path_188" data-name="Path 188" d="M36,23a5,5,0,1,0,5,5A5.006,5.006,0,0,0,36,23Zm0,8a3,3,0,1,1,3-3A3,3,0,0,1,36,31Z" fill="#437ddd"/>
    <path id="Path_189" data-name="Path 189" d="M17,19h2v2H17Z" fill="#437ddd"/>
    <path id="Path_190" data-name="Path 190" d="M21,19H55v2H21Z" fill="#437ddd"/>
    <path id="Path_191" data-name="Path 191" d="M43,23H55v2H43Z" fill="#437ddd"/>
    <path id="Path_192" data-name="Path 192" d="M43,27H55v2H43Z" fill="#437ddd"/>
    <path id="Path_193" data-name="Path 193" d="M17,23H29v2H17Z" fill="#437ddd"/>
    <path id="Path_194" data-name="Path 194" d="M17,27H29v2H17Z" fill="#437ddd"/>
  </g>
</svg>
