<svg xmlns="http://www.w3.org/2000/svg" width="33.017" height="24.35" viewBox="0 0 33.017 24.35">
  <g id="contact" transform="translate(0 5.25)">
    <path id="Path_567" data-name="Path 567" d="M118.181,88.862a3.556,3.556,0,1,0-3.556-3.556A3.556,3.556,0,0,0,118.181,88.862Zm0-5.73a2.18,2.18,0,1,1-2.18,2.18A2.18,2.18,0,0,1,118.181,83.133Zm0,0" transform="translate(-108.317 -82.213)" fill="#437ddd"/>
    <path id="Path_568" data-name="Path 568" d="M85.462,234.872a5.337,5.337,0,0,0-3.866,1.616,5.705,5.705,0,0,0-1.6,4.038.69.69,0,0,0,.688.688h9.547a.69.69,0,0,0,.688-.688,5.705,5.705,0,0,0-1.6-4.038A5.337,5.337,0,0,0,85.462,234.872Zm-4.038,4.966a4.208,4.208,0,0,1,1.156-2.387,4.052,4.052,0,0,1,5.764,0,4.227,4.227,0,0,1,1.156,2.387Zm0,0" transform="translate(-75.598 -226.909)" fill="#437ddd"/>
    <path id="Path_569" data-name="Path 569" d="M29.578-5.25H3.439A3.441,3.441,0,0,0,0-1.811V15.661A3.441,3.441,0,0,0,3.439,19.1H29.578a3.441,3.441,0,0,0,3.439-3.439V-1.811A3.441,3.441,0,0,0,29.578-5.25Zm2.064,20.911a2.07,2.07,0,0,1-2.064,2.064H3.439a2.07,2.07,0,0,1-2.064-2.064V-1.811A2.07,2.07,0,0,1,3.439-3.874H29.578a2.07,2.07,0,0,1,2.064,2.064Zm0,0" fill="#437ddd"/>
    <path id="Path_570" data-name="Path 570" d="M357.326,203.5h-8.013a.688.688,0,1,0,0,1.376h8.013a.688.688,0,1,0,0-1.376Zm0,0" transform="translate(-329.441 -197.263)" fill="#437ddd"/>
    <path id="Path_571" data-name="Path 571" d="M357.326,283.5h-8.013a.688.688,0,0,0,0,1.376h8.013a.688.688,0,0,0,0-1.376Zm0,0" transform="translate(-329.441 -272.861)" fill="#437ddd"/>
    <path id="Path_572" data-name="Path 572" d="M357.326,123.5h-8.013a.688.688,0,1,0,0,1.376h8.013a.688.688,0,1,0,0-1.376Zm0,0" transform="translate(-329.441 -121.665)" fill="#437ddd"/>
  </g>
</svg>
