<svg xmlns="http://www.w3.org/2000/svg" width="58.568" height="58.578" viewBox="0 0 58.568 58.578">
  <g id="XMLID_1258_" transform="translate(-0.043)">
    <g id="XMLID_1850_" transform="translate(0.043)">
      <path id="XMLID_1911_" d="M58.276,24.637a1.145,1.145,0,0,0-1.035-.313l-9.86,1.984A1.144,1.144,0,0,0,46.8,28.24l1.334,1.334L42.9,34.809l-4.053-4.053a1.144,1.144,0,0,0-1.618,0l-4.973,4.973,1.865-6.7a5.371,5.371,0,0,0-3.286-6.465l1.491-4.26c.411.036.822.055,1.228.055a14.224,14.224,0,0,0,9.069-3.278l.273-.226a3.187,3.187,0,0,0,.522-4.41,3.173,3.173,0,0,0-4.541-.5l-.31.257a7.877,7.877,0,0,1-1.483.973,4.744,4.744,0,0,1-5.431-.955,5.228,5.228,0,1,0-5.765-1.922,5.96,5.96,0,0,0-3.076,1.735,1.143,1.143,0,0,0-.135.138A15.52,15.52,0,0,1,14.9,15.3a3.164,3.164,0,0,0-1.884,1.491l-2.345-2.345a2.634,2.634,0,0,0-3.721,0L3.882,17.517h0L.814,20.586a2.631,2.631,0,0,0,0,3.721l8.455,8.455a2.632,2.632,0,0,0,3.721,0l3.177-3.177L14.66,33.535a1.144,1.144,0,1,0,2.138.815l3.752-9.839h8.4a3.076,3.076,0,0,1,2.963,3.9l-2.6,9.34a.978.978,0,0,1-.94.714.976.976,0,0,1-.963-1.129l1.383-8.7a1.144,1.144,0,0,0-1.13-1.324H24.953a1.144,1.144,0,0,0-1.021.628c-.067.132-6.7,13.256-8.941,17.691a1.175,1.175,0,0,1-1.21.629l-.054-.007a1.119,1.119,0,0,1-.9-1.507l.7-1.848a1.144,1.144,0,1,0-2.138-.815l-.7,1.848a3.407,3.407,0,0,0,2.726,4.59l.054.007a3.47,3.47,0,0,0,3.56-1.866c1.954-3.874,7.267-14.381,8.623-17.061h.668l-1.173,7.372a3.262,3.262,0,0,0,2.23,3.621L14.639,53.344a1.144,1.144,0,0,0,0,1.618l3.281,3.281a1.144,1.144,0,0,0,1.618,0l6.308-6.308a1.144,1.144,0,1,0-1.618-1.618l-5.5,5.5-1.663-1.663,20.97-20.97,4.053,4.053a1.144,1.144,0,0,0,1.618,0l6.853-6.853a1.144,1.144,0,0,0,0-1.618l-.634-.634,6.08-1.224-1.224,6.08-.942-.942a1.144,1.144,0,0,0-1.618,0L42.9,41.371l-4.053-4.053a1.144,1.144,0,0,0-1.618,0L30.7,43.845a1.144,1.144,0,0,0,1.618,1.618l5.718-5.718L42.088,43.8a1.144,1.144,0,0,0,1.618,0l9.326-9.326,1.642,1.642a1.144,1.144,0,0,0,1.931-.583l1.984-9.86A1.144,1.144,0,0,0,58.276,24.637ZM30.109,2.288a2.935,2.935,0,1,1-2.935,2.935A2.938,2.938,0,0,1,30.109,2.288ZM18.789,22.566,17.4,21.173q.992-.324,1.947-.739ZM14.928,18.6a.887.887,0,0,1,.606-1.1,17.845,17.845,0,0,0,5.215-2.471L20.1,17.514A19.73,19.73,0,0,1,16.024,19.2c-.026.008-.054.014-.081.019a.878.878,0,0,1-.6-.1l-.335-.335A.871.871,0,0,1,14.928,18.6ZM8.569,16.067a.344.344,0,0,1,.485,0l4.17,4.17a3.145,3.145,0,0,0,.684.684l3.6,3.6a.343.343,0,0,1,0,.485l-2.26,2.26-2.513-2.513.479-.479a1.144,1.144,0,0,0,0-1.618L10.64,20.082a1.144,1.144,0,0,0-1.618,0l-.479.479L6.309,18.326Zm1.566,8.053a.429.429,0,0,1-.607,0h0l-.35-.35a.429.429,0,0,1,0-.607l.653-.653.957.957Zm1.237,7.025a.343.343,0,0,1-.485,0L2.432,22.689a.343.343,0,0,1,0-.485l2.26-2.26,2.341,2.341a2.721,2.721,0,0,0,.527,3.1l.35.35h0a2.721,2.721,0,0,0,3.1.527l2.62,2.62Zm16.341-8.92H21.242l2.35-9.035a3.667,3.667,0,0,1,3.549-2.743,3.626,3.626,0,0,1,2.686,1.171,7.054,7.054,0,0,0,8.287,1.595,10.158,10.158,0,0,0,1.915-1.255l.31-.257a.886.886,0,0,1,1.268.141.919.919,0,0,1-.173,1.252l-.273.226a11.867,11.867,0,0,1-9.435,2.607,1.143,1.143,0,0,0-1.256.752l-1.942,5.546Z" transform="translate(-0.043)" fill="#437ddd"/>
      <path id="XMLID_1920_" d="M238.14,408.8a1.145,1.145,0,1,0,.809.335A1.152,1.152,0,0,0,238.14,408.8Z" transform="translate(-209.888 -362.033)" fill="#437ddd"/>
      <path id="XMLID_1921_" d="M114.03,326.428a1.143,1.143,0,1,0-.81-.335A1.152,1.152,0,0,0,114.03,326.428Z" transform="translate(-99.977 -287.058)" fill="#437ddd"/>
    </g>
  </g>
</svg>
