<svg xmlns="http://www.w3.org/2000/svg" width="44.995" height="45.004" viewBox="0 0 44.995 45.004">
<g id="contract" transform="translate(-0.055)">
    <path id="Path_429" data-name="Path 429" d="M8.258,1.985,2.04,8.2H8.258Z" transform="translate(-1.81 -1.811)" fill="#437ddd"/>
    <path id="Path_430" data-name="Path 430" d="M431,88.434l-1.865-1.865-3.172,3.172a1.477,1.477,0,0,0-1.1.431L423.2,91.84l2.529,2.529L427.4,92.7a1.473,1.473,0,0,0,.434-1.048c0-.016,0-.032,0-.048Z" transform="translate(-385.951 -78.96)" fill="#437ddd"/>
    <path id="Path_431" data-name="Path 431" d="M0,0H21.961V3.577H0Z" transform="translate(19.851 30.274) rotate(-45)" fill="#437ddd"/>
    <path id="Path_432" data-name="Path 432" d="M189.759,367.728l-1.584,3.745,3.745-1.584Z" transform="translate(-171.584 -335.405)" fill="#437ddd"/>
    <path id="Path_433" data-name="Path 433" d="M14,40.029l-2.244-2.243-2,2H4.257V37.15h4.4l3.094-3.094,1.986,1.986,2.478-5.858,3.909-3.909H5.817V23.638H22.762l2.965-2.965H5.817V18.036H28.364l5.783-5.783V0H9.084V9.029H.055V45H34.147V24.77L22.475,36.442ZM9.762,12.434H24.441v2.637H9.762Z" fill="#437ddd"/>
</g>
</svg>