<svg id="salary" xmlns="http://www.w3.org/2000/svg" width="46.25" height="40.469" viewBox="0 0 46.25 40.469">
  <path id="Path_441" data-name="Path 441" d="M45.528,178.738H.723A.722.722,0,0,1,0,178.016V152.723a.723.723,0,1,1,1.445,0v24.57H44.8v-24.57a.723.723,0,1,1,1.445,0v25.293A.722.722,0,0,1,45.528,178.738Zm0,0" transform="translate(0 -138.269)" fill="#437ddd"/>
  <path id="Path_442" data-name="Path 442" d="M23.125,167.893a.72.72,0,0,1-.391-.115L.332,153.324a.722.722,0,0,1,.783-1.214l22.4,14.453a.722.722,0,0,1-.392,1.33Zm0,0" transform="translate(-0.001 -138.264)" fill="#437ddd"/>
  <path id="Path_443" data-name="Path 443" d="M248.724,167.893a.723.723,0,0,1-.392-1.33l22.4-14.453a.722.722,0,1,1,.783,1.214l-22.4,14.453A.72.72,0,0,1,248.724,167.893Zm0,0" transform="translate(-225.599 -138.264)" fill="#437ddd"/>
  <path id="Path_444" data-name="Path 444" d="M453.08,125.288a.72.72,0,0,1-.391-.115l-4.334-2.8a.722.722,0,0,1,.783-1.214l4.334,2.8a.722.722,0,0,1-.392,1.33Zm0,0" transform="translate(-407.553 -110.112)" fill="#437ddd"/>
  <path id="Path_445" data-name="Path 445" d="M.724,125.265a.723.723,0,0,1-.392-1.33l4.335-2.8a.722.722,0,1,1,.783,1.214l-4.335,2.8a.719.719,0,0,1-.391.115Zm0,0" transform="translate(-0.001 -110.089)" fill="#437ddd"/>
  <path id="Path_446" data-name="Path 446" d="M299.353,306.111a.72.72,0,0,1-.391-.115l-19.6-12.644a.722.722,0,0,1,.783-1.214l19.6,12.645a.722.722,0,0,1-.392,1.33Zm0,0" transform="translate(-253.826 -265.642)" fill="#437ddd"/>
  <path id="Path_447" data-name="Path 447" d="M.724,306.086a.723.723,0,0,1-.392-1.33l19.6-12.647a.722.722,0,1,1,.783,1.214l-19.6,12.647a.721.721,0,0,1-.391.115Zm0,0" transform="translate(-0.001 -265.617)" fill="#437ddd"/>
  <path id="Path_448" data-name="Path 448" d="M48.715,105.3a.722.722,0,0,1-.723-.723V96.723a.723.723,0,1,1,1.445,0v7.855A.722.722,0,0,1,48.715,105.3Zm0,0" transform="translate(-43.657 -87.328)" fill="#437ddd"/>
  <path id="Path_449" data-name="Path 449" d="M448.715,105.3a.722.722,0,0,1-.723-.723V96.723a.723.723,0,1,1,1.445,0v7.857A.722.722,0,0,1,448.715,105.3Zm0,0" transform="translate(-407.524 -87.328)" fill="#437ddd"/>
  <path id="Path_450" data-name="Path 450" d="M84.849,97.445H48.715a.723.723,0,1,1,0-1.445H84.849a.723.723,0,0,1,0,1.445Zm0,0" transform="translate(-43.657 -87.328)" fill="#437ddd"/>
  <path id="Path_451" data-name="Path 451" d="M72.715,122.891a.723.723,0,0,1,0-1.445.723.723,0,0,0,.723-.723.723.723,0,0,1,1.445,0A2.17,2.17,0,0,1,72.715,122.891Zm0,0" transform="translate(-65.489 -109.16)" fill="#437ddd"/>
  <path id="Path_452" data-name="Path 452" d="M410.289,122.891a2.171,2.171,0,0,1-2.168-2.168.723.723,0,0,1,1.445,0,.723.723,0,0,0,.723.723.723.723,0,0,1,0,1.445Zm0,0" transform="translate(-371.254 -109.16)" fill="#437ddd"/>
  <path id="Path_453" data-name="Path 453" d="M117.633,121.445H88.715a.723.723,0,0,1,0-1.445h28.918a.723.723,0,1,1,0,1.445Zm0,0" transform="translate(-80.043 -109.16)" fill="#437ddd"/>
  <path id="Path_454" data-name="Path 454" d="M424.844,143.087a.722.722,0,0,1-.723-.723v-5.642a.723.723,0,1,1,1.445,0v5.642A.723.723,0,0,1,424.844,143.087Zm0,0" transform="translate(-385.809 -123.715)" fill="#437ddd"/>
  <path id="Path_455" data-name="Path 455" d="M72.715,143.086a.722.722,0,0,1-.723-.723v-5.641a.723.723,0,0,1,1.445,0v5.641A.722.722,0,0,1,72.715,143.086Zm0,0" transform="translate(-65.489 -123.715)" fill="#437ddd"/>
  <path id="Path_456" data-name="Path 456" d="M212.395,176.672a4.336,4.336,0,1,1,4.336-4.336A4.34,4.34,0,0,1,212.395,176.672Zm0-7.227a2.891,2.891,0,1,0,2.891,2.891A2.894,2.894,0,0,0,212.395,169.445Zm0,0" transform="translate(-189.265 -152.824)" fill="#437ddd"/>
  <path id="Path_457" data-name="Path 457" d="M56.723,75.613A.722.722,0,0,1,56,74.891V72.723a.723.723,0,0,1,1.445,0v2.168A.722.722,0,0,1,56.723,75.613Zm0,0" transform="translate(-50.941 -65.496)" fill="#437ddd"/>
  <path id="Path_458" data-name="Path 458" d="M91.41,73.445H56.723a.723.723,0,0,1,0-1.445H91.41a.723.723,0,1,1,0,1.445Zm0,0" transform="translate(-50.941 -65.496)" fill="#437ddd"/>
  <path id="Path_459" data-name="Path 459" d="M440.723,75.613a.722.722,0,0,1-.723-.723V72.723a.723.723,0,0,1,1.445,0v2.168A.722.722,0,0,1,440.723,75.613Zm0,0" transform="translate(-400.254 -65.496)" fill="#437ddd"/>
  <path id="Path_460" data-name="Path 460" d="M64.723,51.613A.722.722,0,0,1,64,50.891V48.723a.723.723,0,1,1,1.445,0v2.168A.722.722,0,0,1,64.723,51.613Zm0,0" transform="translate(-58.219 -43.664)" fill="#437ddd"/>
  <path id="Path_461" data-name="Path 461" d="M97.965,49.445H64.723a.723.723,0,0,1,0-1.445H97.965a.723.723,0,1,1,0,1.445Zm0,0" transform="translate(-58.219 -43.664)" fill="#437ddd"/>
  <path id="Path_462" data-name="Path 462" d="M432.723,51.613a.722.722,0,0,1-.723-.723V48.723a.723.723,0,0,1,1.445,0v2.168A.722.722,0,0,1,432.723,51.613Zm0,0" transform="translate(-392.976 -43.664)" fill="#437ddd"/>
  <path id="Path_463" data-name="Path 463" d="M72.723,27.613A.722.722,0,0,1,72,26.891V24.723a.723.723,0,0,1,1.445,0v2.168A.722.722,0,0,1,72.723,27.613Zm0,0" transform="translate(-65.496 -21.832)" fill="#437ddd"/>
  <path id="Path_464" data-name="Path 464" d="M104.52,25.445h-31.8a.723.723,0,0,1,0-1.445h31.8a.723.723,0,0,1,0,1.445Zm0,0" transform="translate(-65.496 -21.832)" fill="#437ddd"/>
  <path id="Path_465" data-name="Path 465" d="M424.723,27.613a.722.722,0,0,1-.723-.723V24.723a.723.723,0,1,1,1.445,0v2.168A.722.722,0,0,1,424.723,27.613Zm0,0" transform="translate(-385.699 -21.832)" fill="#437ddd"/>
  <path id="Path_466" data-name="Path 466" d="M80.723,3.613A.722.722,0,0,1,80,2.891V.723a.723.723,0,0,1,1.445,0V2.891A.722.722,0,0,1,80.723,3.613Zm0,0" transform="translate(-72.773)" fill="#437ddd"/>
  <path id="Path_467" data-name="Path 467" d="M111.074,1.445H80.723a.723.723,0,1,1,0-1.445h30.352a.723.723,0,0,1,0,1.445Zm0,0" transform="translate(-72.773)" fill="#437ddd"/>
  <path id="Path_468" data-name="Path 468" d="M416.723,3.613A.722.722,0,0,1,416,2.891V.723a.723.723,0,1,1,1.445,0V2.891A.722.722,0,0,1,416.723,3.613Zm0,0" transform="translate(-378.422)" fill="#437ddd"/>
</svg>
