<svg xmlns="http://www.w3.org/2000/svg" width="32.009" height="32.122" viewBox="0 0 32.009 32.122">
  <g id="cloud_transfer_storage_dollar_money_finance_document" data-name="cloud, transfer, storage, dollar, money, finance, document" transform="translate(-1.813 -2.058)">
    <path id="Path_597" data-name="Path 597" d="M10.807,22.044H6.642a4.452,4.452,0,0,1,0-8.9h.044c-.027-.277-.044-.548-.044-.836A9.731,9.731,0,0,1,25.3,8.433a3.292,3.292,0,0,1,1.353-.3,3.333,3.333,0,0,1,2.856,5.075,4.449,4.449,0,0,1-.633,8.851H24.723" fill="none" stroke="#437ddd" stroke-linecap="round" stroke-linejoin="round" stroke-width="1"/>
    <rect id="Rectangle_631" data-name="Rectangle 631" width="13.916" height="19.217" transform="translate(10.807 14.462)" fill="none" stroke="#437ddd" stroke-linecap="round" stroke-linejoin="round" stroke-width="1"/>
    <path id="Path_598" data-name="Path 598" d="M44.178,51.489a3.959,3.959,0,1,1-1.157-2.817,3.979,3.979,0,0,1,1.157,2.817Z" transform="translate(-22.435 -29.735)" fill="none" stroke="#437ddd" stroke-linecap="round" stroke-linejoin="round" stroke-width="1"/>
    <path id="Path_599" data-name="Path 599" d="M46.015,56.623h-.338A.677.677,0,0,1,45,55.947h0a.677.677,0,0,1,.677-.677H47" transform="translate(-28.245 -34.87)" fill="none" stroke="#437ddd" stroke-linecap="round" stroke-linejoin="round" stroke-width="1"/>
    <path id="Path_600" data-name="Path 600" d="M46.048,59.27h.338a.677.677,0,0,1,.677.66h0a.677.677,0,0,1-.677.677H45.05" transform="translate(-28.278 -37.517)" fill="none" stroke="#437ddd" stroke-linecap="round" stroke-linejoin="round" stroke-width="1"/>
    <line id="Line_134" data-name="Line 134" y2="0.663" transform="translate(17.767 19.764)" fill="none" stroke="#437ddd" stroke-linecap="round" stroke-linejoin="round" stroke-width="1"/>
    <line id="Line_135" data-name="Line 135" y2="0.663" transform="translate(17.767 23.076)" fill="none" stroke="#437ddd" stroke-linecap="round" stroke-linejoin="round" stroke-width="1"/>
    <line id="Line_136" data-name="Line 136" x1="7.623" transform="translate(15.114 27.715)" fill="none" stroke="#437ddd" stroke-linecap="round" stroke-linejoin="round" stroke-width="1"/>
    <line id="Line_137" data-name="Line 137" x1="0.995" transform="translate(12.793 27.715)" fill="none" stroke="#437ddd" stroke-linecap="round" stroke-linejoin="round" stroke-width="1"/>
    <line id="Line_138" data-name="Line 138" x1="2.321" transform="translate(20.416 29.704)" fill="none" stroke="#437ddd" stroke-linecap="round" stroke-linejoin="round" stroke-width="1"/>
    <line id="Line_139" data-name="Line 139" x1="6.296" transform="translate(12.793 29.704)" fill="none" stroke="#437ddd" stroke-linecap="round" stroke-linejoin="round" stroke-width="1"/>
    <line id="Line_140" data-name="Line 140" x1="3.644" transform="translate(17.104 31.694)" fill="none" stroke="#437ddd" stroke-linecap="round" stroke-linejoin="round" stroke-width="1"/>
    <line id="Line_141" data-name="Line 141" x1="2.984" transform="translate(12.793 31.694)" fill="none" stroke="#437ddd" stroke-linecap="round" stroke-linejoin="round" stroke-width="1"/>
    <line id="Line_142" data-name="Line 142" x2="1.989" transform="translate(12.793 16.452)" fill="none" stroke="#437ddd" stroke-linecap="round" stroke-linejoin="round" stroke-width="1"/>
  </g>
</svg>
