<svg xmlns="http://www.w3.org/2000/svg" width="62.875" height="60.627" viewBox="0 0 62.875 60.627">
  <g id="calendar" transform="translate(0 0)">
    <path id="Path_502" data-name="Path 502" d="M.921,44.8a.921.921,0,0,0,.921-.921V17.056H56.259V27.18a.921.921,0,1,0,1.842,0V8.978a5.606,5.606,0,0,0-5.6-5.6H50.086V2.237A2.24,2.24,0,0,0,47.849,0H46.138A2.24,2.24,0,0,0,43.9,2.237V3.378H37.793V2.237A2.24,2.24,0,0,0,35.555,0H33.844a2.24,2.24,0,0,0-2.237,2.237V3.378H25.5V2.237A2.24,2.24,0,0,0,23.261,0H21.551a2.24,2.24,0,0,0-2.237,2.237V3.378H13.2V2.237A2.24,2.24,0,0,0,10.967,0H9.257A2.24,2.24,0,0,0,7.02,2.237V3.378H5.6A5.606,5.606,0,0,0,0,8.978v34.9a.921.921,0,0,0,.921.921ZM45.743,2.237a.4.4,0,0,1,.4-.4h1.711a.4.4,0,0,1,.395.4V6.712a.4.4,0,0,1-.395.4H46.138a.4.4,0,0,1-.4-.4Zm-12.294,0a.4.4,0,0,1,.395-.4h1.711a.4.4,0,0,1,.4.4V6.712a.4.4,0,0,1-.4.4H33.844a.4.4,0,0,1-.395-.4Zm-12.294,0a.4.4,0,0,1,.4-.4h1.711a.4.4,0,0,1,.4.4V6.712a.4.4,0,0,1-.4.4H21.551a.4.4,0,0,1-.4-.4Zm-12.294,0a.4.4,0,0,1,.4-.4h1.711a.4.4,0,0,1,.395.4V6.712a.4.4,0,0,1-.395.4H9.257a.4.4,0,0,1-.4-.4ZM5.6,5.22H7.02V6.712A2.24,2.24,0,0,0,9.257,8.949h1.711A2.24,2.24,0,0,0,13.2,6.712V5.22h6.109V6.712a2.24,2.24,0,0,0,2.237,2.237h1.711A2.24,2.24,0,0,0,25.5,6.712V5.22h6.108V6.712a2.24,2.24,0,0,0,2.237,2.237h1.711a2.24,2.24,0,0,0,2.237-2.237V5.22H43.9V6.712a2.24,2.24,0,0,0,2.237,2.237H47.85a2.24,2.24,0,0,0,2.237-2.237V5.22H52.5A3.762,3.762,0,0,1,56.26,8.978v6.236H1.842V8.978A3.762,3.762,0,0,1,5.6,5.22Zm0,0" fill="#437ddd"/>
    <path id="Path_503" data-name="Path 503" d="M10.427,390.222H2.4a.555.555,0,0,1-.554-.554v-4.735a.921.921,0,1,0-1.842,0v4.735a2.4,2.4,0,0,0,2.4,2.4h8.031a.921.921,0,1,0,0-1.842Zm0,0" transform="translate(0 -336.854)" fill="#437ddd"/>
    <path id="Path_504" data-name="Path 504" d="M55.212,160.762h-3.2a.921.921,0,1,0,0,1.842h3.2a.921.921,0,0,0,0-1.842Zm0,0" transform="translate(-44.816 -141.02)" fill="#437ddd"/>
    <path id="Path_505" data-name="Path 505" d="M132.128,162.6h3.2a.921.921,0,1,0,0-1.842h-3.2a.921.921,0,1,0,0,1.842Zm0,0" transform="translate(-115.095 -141.02)" fill="#437ddd"/>
    <path id="Path_506" data-name="Path 506" d="M212.245,162.6h3.2a.921.921,0,0,0,0-1.842h-3.2a.921.921,0,0,0,0,1.842Zm0,0" transform="translate(-185.373 -141.02)" fill="#437ddd"/>
    <path id="Path_507" data-name="Path 507" d="M292.359,162.6h3.2a.921.921,0,1,0,0-1.842h-3.2a.921.921,0,1,0,0,1.842Zm0,0" transform="translate(-255.649 -141.02)" fill="#437ddd"/>
    <path id="Path_508" data-name="Path 508" d="M375.677,160.762h-3.2a.921.921,0,1,0,0,1.842h3.2a.921.921,0,0,0,0-1.842Zm0,0" transform="translate(-325.927 -141.02)" fill="#437ddd"/>
    <path id="Path_509" data-name="Path 509" d="M55.212,198.477h-3.2a.921.921,0,1,0,0,1.842h3.2a.921.921,0,0,0,0-1.842Zm0,0" transform="translate(-44.816 -174.104)" fill="#437ddd"/>
    <path id="Path_510" data-name="Path 510" d="M132.128,200.319h3.2a.921.921,0,1,0,0-1.842h-3.2a.921.921,0,1,0,0,1.842Zm0,0" transform="translate(-115.095 -174.104)" fill="#437ddd"/>
    <path id="Path_511" data-name="Path 511" d="M212.245,200.319h3.2a.921.921,0,0,0,0-1.842h-3.2a.921.921,0,0,0,0,1.842Zm0,0" transform="translate(-185.373 -174.104)" fill="#437ddd"/>
    <path id="Path_512" data-name="Path 512" d="M292.359,200.319h3.2a.921.921,0,1,0,0-1.842h-3.2a.921.921,0,1,0,0,1.842Zm0,0" transform="translate(-255.649 -174.104)" fill="#437ddd"/>
    <path id="Path_513" data-name="Path 513" d="M375.677,198.477h-3.2a.921.921,0,1,0,0,1.842h3.2a.921.921,0,0,0,0-1.842Zm0,0" transform="translate(-325.927 -174.104)" fill="#437ddd"/>
    <path id="Path_514" data-name="Path 514" d="M131.314,257.689l4.736,4.736a3.627,3.627,0,0,0,5.129,0l12.969-12.969a3.627,3.627,0,0,0-5.129-5.129l-10.4,10.4-2.171-2.171a3.627,3.627,0,1,0-5.129,5.129Zm1.3-3.827a1.787,1.787,0,0,1,2.524,0l2.822,2.822a.921.921,0,0,0,1.3,0L150.32,245.63a1.785,1.785,0,1,1,2.524,2.524l-12.968,12.968a1.785,1.785,0,0,1-2.524,0l-4.736-4.736a1.787,1.787,0,0,1,0-2.524Zm0,0" transform="translate(-114.258 -213.393)" fill="#437ddd"/>
    <path id="Path_515" data-name="Path 515" d="M155.984,256.282v-7.349a.921.921,0,0,0-1.842,0v6.175a12.217,12.217,0,0,0-16.771,15.816H112.507a.921.921,0,1,0,0,1.842h25.885a12.215,12.215,0,1,0,17.592-16.483Zm-7.446,20.059a10.377,10.377,0,1,1,10.377-10.377A10.389,10.389,0,0,1,148.538,276.34Zm0,0" transform="translate(-97.883 -217.555)" fill="#437ddd"/>
    <path id="Path_516" data-name="Path 516" d="M347.875,320.527a9.047,9.047,0,1,0,9.046,9.047A9.057,9.057,0,0,0,347.875,320.527Zm.825,16.2a.919.919,0,0,0,.1-.408V335.2a.921.921,0,0,0-1.842,0v1.122a.912.912,0,0,0,.1.408,7.216,7.216,0,0,1-6.331-6.331.911.911,0,0,0,.408.1h1.122a.921.921,0,1,0,0-1.842h-1.122a.917.917,0,0,0-.408.1,7.216,7.216,0,0,1,6.331-6.331.912.912,0,0,0-.1.408v1.122a.921.921,0,0,0,1.842,0v-1.122a.919.919,0,0,0-.1-.408,7.216,7.216,0,0,1,6.331,6.331.918.918,0,0,0-.408-.1H353.5a.921.921,0,0,0,0,1.842h1.122a.912.912,0,0,0,.408-.1A7.216,7.216,0,0,1,348.7,336.729Zm0,0" transform="translate(-297.219 -281.166)" fill="#437ddd"/>
    <path id="Path_517" data-name="Path 517" d="M407.947,373.369h-1.109v-.945a.921.921,0,1,0-1.842,0v1.866a.921.921,0,0,0,.921.921h2.03a.921.921,0,1,0,0-1.842Zm0,0" transform="translate(-355.262 -325.882)" fill="#437ddd"/>
  </g>
</svg>
