<svg xmlns="http://www.w3.org/2000/svg" width="64.056" height="60.246" viewBox="0 0 64.056 60.246">
  <g id="attendance" transform="translate(-10 -24.634)">
    <path id="Path_485" data-name="Path 485" d="M70.671,27.032h-4.35V25.415a.781.781,0,0,0-.781-.781H41.957a.781.781,0,0,0-.781.781v1.617H35.523a3.389,3.389,0,0,0-3.385,3.385v5.629a11.562,11.562,0,0,0-18.612,9.17v3.5a2.793,2.793,0,0,0-1.794,1.988A3.5,3.5,0,0,0,13.873,54.8v.747a11.363,11.363,0,0,0,5.884,9.947v3.432l-6.163,2.63-.043.02A6.5,6.5,0,0,0,10,76.818c0,.021,0,.043,0,.065V84.1a.781.781,0,0,0,.781.781H40.306a.781.781,0,0,0,.781-.781V77H70.671a3.389,3.389,0,0,0,3.385-3.385v-43.2A3.389,3.389,0,0,0,70.671,27.032ZM42.738,26.2h22.02v2.914H42.738ZM15.088,45.216a10.006,10.006,0,1,1,20.013,0v3.556c-1.936.209-7.845.525-12.59-2.621,3.26-.435,7.235-1.436,10.182-3.7a.781.781,0,1,0-.951-1.24c-5.362,4.113-14.942,3.679-15.038,3.674a.782.782,0,0,0-.82.733l-.234,3.858-.51-.262a.1.1,0,0,1-.052-.068Zm.347,10.331V54.209a.781.781,0,0,0-.647-.77,1.933,1.933,0,0,1-1.539-2.362,1.217,1.217,0,0,1,.7-.845,1.649,1.649,0,0,0,.482.376l1.276.655a1,1,0,0,0,1.453-.809s0-.01,0-.015L17.4,46.47c.638.006,1.625,0,2.824-.088,6.38,5.428,15.41,3.912,15.8,3.844a.779.779,0,0,0,.231-.082,1.238,1.238,0,0,1,.956.933,1.933,1.933,0,0,1-1.539,2.362.781.781,0,0,0-.646.77v1.339a9.792,9.792,0,1,1-19.584,0Zm16.7,9v4.722l-.809-.345V65.118q.418-.267.809-.57Zm-2.372,1.4v2.8a11.119,11.119,0,0,1-8.447,0v-2.55a11.352,11.352,0,0,0,8.447-.254Zm9.757,17.364H11.562v-6.4a4.929,4.929,0,0,1,2.669-3.933l6.505-2.776a12.674,12.674,0,0,0,9.615,0l6.505,2.776a4.929,4.929,0,0,1,2.668,3.933Zm32.97-9.7a1.824,1.824,0,0,1-1.823,1.823H40.811a6.5,6.5,0,0,0-3.277-3.867l-.043-.02L33.7,69.938V63.1a11.308,11.308,0,0,0,2.881-7.549V54.8a3.5,3.5,0,0,0,2.141-4.095,2.8,2.8,0,0,0-2.059-2.07V45.216A11.523,11.523,0,0,0,33.7,37.493V30.417a1.824,1.824,0,0,1,1.823-1.823h5.652v1.3a.781.781,0,0,0,.781.781H65.54a.781.781,0,0,0,.781-.781v-1.3h4.35a1.824,1.824,0,0,1,1.823,1.823Z" fill="#437ddd"/>
    <path id="Path_486" data-name="Path 486" d="M403.21,221.686H397.5a.781.781,0,0,0,0,1.562h5.711a.781.781,0,0,0,0-1.562Z" transform="translate(-336.369 -171.397)" fill="#437ddd"/>
    <path id="Path_487" data-name="Path 487" d="M356.938,223.248h1.916a.781.781,0,0,0,0-1.562h-1.916a.781.781,0,1,0,0,1.562Z" transform="translate(-301.089 -171.397)" fill="#437ddd"/>
    <path id="Path_488" data-name="Path 488" d="M428.409,286.582H426.47a.781.781,0,1,0,0,1.562h1.939a.781.781,0,1,0,0-1.562Z" transform="translate(-361.568 -227.843)" fill="#437ddd"/>
    <path id="Path_489" data-name="Path 489" d="M336.6,288.144a.781.781,0,1,0,0-1.562H326.259a.781.781,0,1,0,0,1.562Z" transform="translate(-274.404 -227.843)" fill="#437ddd"/>
    <path id="Path_490" data-name="Path 490" d="M300.555,286.582h-.7a.781.781,0,0,0,0,1.562h.7a.781.781,0,1,0,0-1.562Z" transform="translate(-251.439 -227.843)" fill="#437ddd"/>
    <path id="Path_491" data-name="Path 491" d="M239.993,286.582a.781.781,0,0,0,0,1.562h4.429a.781.781,0,1,0,0-1.562Z" transform="translate(-199.37 -227.843)" fill="#437ddd"/>
    <path id="Path_492" data-name="Path 492" d="M411.5,346.563h-4.47a.781.781,0,0,0,0,1.562h4.47a.781.781,0,1,0,0-1.562Z" transform="translate(-344.659 -280.015)" fill="#437ddd"/>
    <path id="Path_493" data-name="Path 493" d="M381.743,346.563h-.562a.781.781,0,1,0,0,1.562h.561a.781.781,0,1,0,0-1.562Z" transform="translate(-322.175 -280.015)" fill="#437ddd"/>
    <path id="Path_494" data-name="Path 494" d="M335.927,346.563h-4.246a.781.781,0,0,0,0,1.562h4.246a.781.781,0,0,0,0-1.562Z" transform="translate(-279.12 -280.015)" fill="#437ddd"/>
    <path id="Path_495" data-name="Path 495" d="M248.485,346.563h-8.492a.781.781,0,0,0,0,1.562h8.492a.781.781,0,1,0,0-1.562Z" transform="translate(-199.37 -280.015)" fill="#437ddd"/>
    <path id="Path_496" data-name="Path 496" d="M438,170.6h-.5a.781.781,0,1,0,0,1.562h.5a.781.781,0,1,0,0-1.562Z" transform="translate(-371.156 -126.962)" fill="#437ddd"/>
    <path id="Path_497" data-name="Path 497" d="M369.12,172.162h5.537a.781.781,0,0,0,0-1.562H369.12a.781.781,0,0,0,0,1.562Z" transform="translate(-311.685 -126.962)" fill="#437ddd"/>
    <path id="Path_498" data-name="Path 498" d="M404.079,120.6H398.5a.781.781,0,1,0,0,1.562h5.581a.781.781,0,0,0,0-1.562Z" transform="translate(-337.238 -83.472)" fill="#437ddd"/>
    <path id="Path_499" data-name="Path 499" d="M369.12,122.162h.46a.781.781,0,1,0,0-1.562h-.46a.781.781,0,0,0,0,1.562Z" transform="translate(-311.685 -83.472)" fill="#437ddd"/>
    <path id="Path_500" data-name="Path 500" d="M230.468,123.106a8.593,8.593,0,1,0-8.593-8.593,8.593,8.593,0,0,0,8.593,8.593Zm0-15.624a7.031,7.031,0,1,1-7.031,7.031,7.031,7.031,0,0,1,7.031-7.031Z" transform="translate(-184.29 -70.703)" fill="#437ddd"/>
    <path id="Path_501" data-name="Path 501" d="M253.862,151.045a.781.781,0,0,0,1.1,0l5.707-5.707a.781.781,0,0,0-1.1-1.1l-5.154,5.154-1.675-1.674a.781.781,0,1,0-1.1,1.1Z" transform="translate(-209.976 -103.829)" fill="#437ddd"/>
  </g>
</svg>
