<svg xmlns="http://www.w3.org/2000/svg" width="32.022" height="32.012" viewBox="0 0 32.022 32.012">
  <g id="tax" transform="translate(0 -0.082)">
    <g id="Group_891" data-name="Group 891" transform="translate(25.259 9.335)">
      <g id="Group_890" data-name="Group 890">
        <path id="Path_1060" data-name="Path 1060" d="M404.939,148.218a.625.625,0,1,0,.183.442A.63.63,0,0,0,404.939,148.218Z" transform="translate(-403.872 -148.035)" fill="#437ddd"/>
      </g>
    </g>
    <g id="Group_893" data-name="Group 893" transform="translate(0 0.082)">
      <g id="Group_892" data-name="Group 892" transform="translate(0 0)">
        <path id="Path_1061" data-name="Path 1061" d="M25.885,8.116a.625.625,0,0,0,.625-.625V1.958A1.878,1.878,0,0,0,24.634.082H1.876A1.878,1.878,0,0,0,0,1.958v28.26a1.878,1.878,0,0,0,1.876,1.876H24.634a1.878,1.878,0,0,0,1.876-1.876V27.41a.625.625,0,0,0-1.25,0v2.808a.626.626,0,0,1-.625.625H1.876a.626.626,0,0,1-.625-.625V1.958a.626.626,0,0,1,.625-.625H24.634a.626.626,0,0,1,.625.625V7.491A.625.625,0,0,0,25.885,8.116Z" transform="translate(0 -0.082)" fill="#437ddd"/>
      </g>
    </g>
    <g id="Group_895" data-name="Group 895" transform="translate(4.377 3.716)">
      <g id="Group_894" data-name="Group 894" transform="translate(0 0)">
        <path id="Path_1062" data-name="Path 1062" d="M97.074,79.7l-3.225-3.225a6.871,6.871,0,0,0-6-10.222h-.113v-3.44a.625.625,0,0,0-.625-.625H83.455V58.815a.625.625,0,0,0-.625-.625H78.551a.625.625,0,0,0-.625.625v3.751H74.271a.625.625,0,0,0-.625.625v3.376H70.6a.625.625,0,0,0-.625.625V70.57a.625.625,0,0,0,.625.625H81.252A6.872,6.872,0,0,0,91.2,79.13l3.2,3.2a1.915,1.915,0,0,0,1.357.568,1.874,1.874,0,0,0,1.317-3.2ZM73.646,69.944H71.228V67.819h2.418v2.126Zm4.279,0H74.9V63.817h3.029Zm1.25,0V59.44H82.2v6.495a.625.625,0,1,0,1.25,0V63.442h3.029v2.95a6.9,6.9,0,0,0-4.726,3.553Zm8.672,8.808a5.623,5.623,0,1,1,5.623-5.623A5.63,5.63,0,0,1,87.848,78.752Zm8.325,2.735a.646.646,0,0,1-.889-.037l-3.041-3.041a6.941,6.941,0,0,0,.884-.884l3.062,3.062a.625.625,0,0,1-.017.9Z" transform="translate(-69.978 -58.19)" fill="#437ddd"/>
      </g>
    </g>
    <g id="Group_897" data-name="Group 897" transform="translate(19.58 15.377)">
      <g id="Group_896" data-name="Group 896">
        <path id="Path_1063" data-name="Path 1063" d="M317.352,244.723a.625.625,0,0,0-.852.237l-3.362,5.955a.625.625,0,1,0,1.089.615l3.362-5.955A.625.625,0,0,0,317.352,244.723Z" transform="translate(-313.058 -244.642)" fill="#437ddd"/>
      </g>
    </g>
    <g id="Group_899" data-name="Group 899" transform="translate(22.555 19.189)">
      <g id="Group_898" data-name="Group 898">
        <path id="Path_1064" data-name="Path 1064" d="M362.512,305.586a1.876,1.876,0,1,0,1.876,1.876A1.878,1.878,0,0,0,362.512,305.586Zm0,2.5a.625.625,0,1,1,.625-.625A.626.626,0,0,1,362.512,308.087Z" transform="translate(-360.636 -305.586)" fill="#437ddd"/>
      </g>
    </g>
    <g id="Group_901" data-name="Group 901" transform="translate(18.186 14.37)">
      <g id="Group_900" data-name="Group 900">
        <path id="Path_1065" data-name="Path 1065" d="M292.652,228.535a1.876,1.876,0,1,0,1.876,1.876A1.878,1.878,0,0,0,292.652,228.535Zm0,2.5a.625.625,0,1,1,.625-.625A.626.626,0,0,1,292.652,231.036Z" transform="translate(-290.776 -228.535)" fill="#437ddd"/>
      </g>
    </g>
    <g id="Group_903" data-name="Group 903" transform="translate(3.376 27.467)">
      <g id="Group_902" data-name="Group 902">
        <path id="Path_1066" data-name="Path 1066" d="M71.919,437.943H54.608a.625.625,0,0,0,0,1.25H71.919a.625.625,0,0,0,0-1.25Z" transform="translate(-53.983 -437.943)" fill="#437ddd"/>
      </g>
    </g>
    <g id="Group_905" data-name="Group 905" transform="translate(8.753 23.966)">
      <g id="Group_904" data-name="Group 904">
        <path id="Path_1067" data-name="Path 1067" d="M144.453,381.961h-3.877a.625.625,0,1,0,0,1.25h3.877a.625.625,0,1,0,0-1.25Z" transform="translate(-139.951 -381.961)" fill="#437ddd"/>
      </g>
    </g>
    <g id="Group_907" data-name="Group 907" transform="translate(14.922 23.966)">
      <g id="Group_906" data-name="Group 906">
        <path id="Path_1068" data-name="Path 1068" d="M239.661,382.144a.625.625,0,1,0,.183.442A.63.63,0,0,0,239.661,382.144Z" transform="translate(-238.594 -381.961)" fill="#437ddd"/>
      </g>
    </g>
    <g id="Group_909" data-name="Group 909" transform="translate(8.753 20.464)">
      <g id="Group_908" data-name="Group 908">
        <path id="Path_1069" data-name="Path 1069" d="M144.453,325.978h-3.877a.625.625,0,1,0,0,1.25h3.877a.625.625,0,1,0,0-1.25Z" transform="translate(-139.951 -325.978)" fill="#437ddd"/>
      </g>
    </g>
    <g id="Group_911" data-name="Group 911" transform="translate(3.376 19.042)">
      <g id="Group_910" data-name="Group 910">
        <path id="Path_1070" data-name="Path 1070" d="M55.984,306.253a.634.634,0,1,1,.75-.623.625.625,0,0,0,1.25,0,1.893,1.893,0,0,0-1.376-1.78.625.625,0,0,0-1.249,0,1.893,1.893,0,0,0-1.376,1.78,1.943,1.943,0,0,0,2,1.874.634.634,0,1,1-.75.623.625.625,0,1,0-1.25,0,1.893,1.893,0,0,0,1.376,1.779v.036a.625.625,0,0,0,1.25,0v-.036a1.893,1.893,0,0,0,1.376-1.779A1.943,1.943,0,0,0,55.984,306.253Z" transform="translate(-53.983 -303.237)" fill="#437ddd"/>
      </g>
    </g>
  </g>
</svg>
