<svg id="transfer" xmlns="http://www.w3.org/2000/svg" width="51" height="51" viewBox="0 0 51 51">
  <path id="Path_434" data-name="Path 434" d="M31.781,20a1.594,1.594,0,0,1-1.594-1.594V8.844a2.66,2.66,0,0,0-2.656-2.656H11.594a1.594,1.594,0,0,1,0-3.187H27.531a5.849,5.849,0,0,1,5.844,5.844v9.563A1.594,1.594,0,0,1,31.781,20Z" transform="translate(11.25 3.375)" fill="#437ddd"/>
  <path id="Path_435" data-name="Path 435" d="M23.062,14.656a1.581,1.581,0,0,1-1.126-.468L18.217,10.47a1.593,1.593,0,0,1,1.126-2.72h7.438a1.593,1.593,0,0,1,1.126,2.72l-3.719,3.719A1.581,1.581,0,0,1,23.062,14.656Z" transform="translate(19.969 8.719)" fill="#437ddd"/>
  <path id="Path_436" data-name="Path 436" d="M20.531,30H8.844A5.849,5.849,0,0,1,3,24.156V14.594a1.594,1.594,0,0,1,3.188,0v9.563a2.66,2.66,0,0,0,2.656,2.656H20.531a1.594,1.594,0,0,1,0,3.188Z" transform="translate(3.375 14.625)" fill="#437ddd"/>
  <path id="Path_437" data-name="Path 437" d="M10.281,19.906H2.844a1.593,1.593,0,0,1-1.126-2.72l3.719-3.719a1.594,1.594,0,0,1,2.255,0l3.719,3.719a1.593,1.593,0,0,1-1.128,2.72Z" transform="translate(1.406 14.625)" fill="#437ddd"/>
  <circle id="Ellipse_43" data-name="Ellipse 43" cx="5.313" cy="5.313" r="5.313" transform="translate(5.313)" fill="#437ddd"/>
  <path id="Path_438" data-name="Path 438" d="M15.406,6H5.844A5.849,5.849,0,0,0,0,11.844v1.063A1.594,1.594,0,0,0,1.594,14.5H19.656a1.594,1.594,0,0,0,1.594-1.594V11.844A5.849,5.849,0,0,0,15.406,6Z" transform="translate(0 6.75)" fill="#437ddd"/>
  <path id="Path_439" data-name="Path 439" d="M21.813,24.625a5.313,5.313,0,1,1,5.313-5.312A5.32,5.32,0,0,1,21.813,24.625Z" transform="translate(18.563 15.75)" fill="#437ddd"/>
  <path id="Path_440" data-name="Path 440" d="M33.656,28.5H15.594A1.594,1.594,0,0,1,14,26.906V25.844A5.849,5.849,0,0,1,19.844,20h9.563a5.849,5.849,0,0,1,5.844,5.844v1.063A1.594,1.594,0,0,1,33.656,28.5Z" transform="translate(15.75 22.5)" fill="#437ddd"/>
</svg>
