<svg xmlns="http://www.w3.org/2000/svg" width="48.993" height="54.65" viewBox="0 0 48.993 54.65">
  <path id="view" d="M20.067,52.515a2.135,2.135,0,0,1-2.135,2.135H8.539A8.549,8.549,0,0,1,0,46.111V8.539A8.549,8.549,0,0,1,8.539,0H34.785a8.549,8.549,0,0,1,8.539,8.539V28.926a2.135,2.135,0,0,1-4.27,0V8.539a4.275,4.275,0,0,0-4.27-4.27H8.539a4.275,4.275,0,0,0-4.27,4.27V46.111a4.275,4.275,0,0,0,4.27,4.27h9.393A2.135,2.135,0,0,1,20.067,52.515ZM32.65,12.809H10.662a2.135,2.135,0,1,0,0,4.27H32.65a2.135,2.135,0,1,0,0-4.27Zm2.135,10.674a2.135,2.135,0,0,0-2.135-2.135H10.662a2.135,2.135,0,1,0,0,4.27H32.65A2.135,2.135,0,0,0,34.785,23.482Zm-24.123,6.4a2.135,2.135,0,1,0,0,4.27H21.881a2.135,2.135,0,1,0,0-4.27ZM48.6,45.523c-.075.107-.332.471-.492.673A30.041,30.041,0,0,1,43.4,51.059a14.64,14.64,0,0,1-9.132,3.591,14.64,14.64,0,0,1-9.132-3.591A30.032,30.032,0,0,1,20.414,46.2c-.16-.2-.417-.566-.492-.673a2.135,2.135,0,0,1,0-2.455c.075-.107.332-.471.492-.673a30.034,30.034,0,0,1,4.717-4.862,14.64,14.64,0,0,1,9.132-3.591A14.64,14.64,0,0,1,43.4,37.534,30.032,30.032,0,0,1,48.112,42.4c.16.2.417.566.492.673A2.134,2.134,0,0,1,48.6,45.523ZM44.152,44.3c-3.394-4.038-6.718-6.084-9.889-6.084s-6.494,2.046-9.889,6.084c3.394,4.038,6.718,6.084,9.889,6.084S40.757,48.335,44.152,44.3ZM34.37,40.24A4.056,4.056,0,1,0,38.426,44.3,4.056,4.056,0,0,0,34.37,40.24Zm0,0" fill="#437ddd"/>
</svg>
