<svg xmlns="http://www.w3.org/2000/svg" width="37.94" height="37.94" viewBox="0 0 37.94 37.94">
  <g id="hand_gesture_dollar_money_settings_options_preferences" data-name="hand, gesture, dollar, money, settings, options, preferences" transform="translate(-1.44 -1.92)">
    <path id="Path_778" data-name="Path 778" d="M57.76,65.16V57.712A3.318,3.318,0,0,1,61.094,54.4,3.4,3.4,0,0,0,63.5,53.363l2.737-2.733a1.557,1.557,0,0,1,1.1-.457,1.461,1.461,0,0,1,.67.152,1.364,1.364,0,0,1,.441.3,1.565,1.565,0,0,1,0,2.219l-3.21,3.262,3.214-3.182a2.371,2.371,0,0,0,.706-1.681V47.083a1.569,1.569,0,0,1,1.569-1.573h0A1.569,1.569,0,0,1,72.3,47.083v6.063a3.158,3.158,0,0,1-.963,2.267l-6.9,6.629V65.16" transform="translate(-33.422 -25.8)" fill="none" stroke="#437ddd" stroke-linecap="round" stroke-linejoin="round" stroke-width="1"/>
    <path id="Path_779" data-name="Path 779" d="M16.482,65.16V57.712A3.318,3.318,0,0,0,13.147,54.4a3.4,3.4,0,0,1-2.387-1.035L8.023,50.63a1.549,1.549,0,0,0-1.1-.457,1.461,1.461,0,0,0-.67.152,1.408,1.408,0,0,0-.441.3,1.565,1.565,0,0,0,0,2.219l3.21,3.262L5.788,52.929a2.367,2.367,0,0,1-.7-1.685V47.083A1.573,1.573,0,0,0,3.513,45.51h0A1.569,1.569,0,0,0,1.94,47.083v6.063a3.146,3.146,0,0,0,.967,2.267L9.8,62.042V65.16" transform="translate(0 -25.8)" fill="none" stroke="#437ddd" stroke-linecap="round" stroke-linejoin="round" stroke-width="1"/>
    <path id="Path_780" data-name="Path 780" d="M41.974,16.962V12.243H39.731a10.1,10.1,0,0,0-1.244-3l1.605-1.605L36.738,4.322,35.133,5.907a10.1,10.1,0,0,0-2.981-1.248V2.42H27.433V4.659a10.1,10.1,0,0,0-3,1.244L22.846,4.322,19.512,7.656,21.1,9.261a10.1,10.1,0,0,0-1.244,3H17.61v4.7h2.243a10.1,10.1,0,0,0,1.244,3l-1.585,1.605L22.846,24.9l1.585-1.585a10.1,10.1,0,0,0,3,1.244V26.8h4.719V24.541a10.1,10.1,0,0,0,3-1.244l1.605,1.585,3.334-3.334-1.605-1.605a10.1,10.1,0,0,0,1.244-3Z" transform="translate(-9.382)" fill="none" stroke="#437ddd" stroke-linecap="round" stroke-linejoin="round" stroke-width="1"/>
    <circle id="Ellipse_90" data-name="Ellipse 90" cx="5.108" cy="5.108" r="5.108" transform="translate(15.302 9.494)" fill="none" stroke="#437ddd" stroke-linecap="round" stroke-linejoin="round" stroke-width="1"/>
    <circle id="Ellipse_91" data-name="Ellipse 91" cx="7.467" cy="7.467" r="7.467" transform="translate(12.942 7.135)" fill="none" stroke="#437ddd" stroke-linecap="round" stroke-linejoin="round" stroke-width="1"/>
    <path id="Path_781" data-name="Path 781" d="M44.05,31.619h1.986a1.18,1.18,0,0,0,1.18-1.18h0a1.18,1.18,0,0,0-1.18-1.18h-.8a1.18,1.18,0,0,1-1.18-1.18h0a1.18,1.18,0,0,1,1.18-1.18H47.2" transform="translate(-25.213 -14.657)" fill="none" stroke="#437ddd" stroke-linecap="round" stroke-linejoin="round" stroke-width="1"/>
    <line id="Line_222" data-name="Line 222" y2="1.176" transform="translate(20.41 11.067)" fill="none" stroke="#437ddd" stroke-linecap="round" stroke-linejoin="round" stroke-width="1"/>
    <line id="Line_223" data-name="Line 223" y2="1.176" transform="translate(20.41 16.962)" fill="none" stroke="#437ddd" stroke-linecap="round" stroke-linejoin="round" stroke-width="1"/>
  </g>
</svg>
